<?xml version="1.0" encoding="UTF-8"?>
<svg width="20px" height="20px" viewBox="0 0 20 20" version="1.1" xmlns="http://www.w3.org/2000/svg" xmlns:xlink="http://www.w3.org/1999/xlink">
    <!-- Generator: Sketch 47.1 (45422) - http://www.bohemiancoding.com/sketch -->
    <title>租车下拉</title>
    <desc>Created with Sketch.</desc>
    <defs></defs>
    <g id="Page-1" stroke="none" stroke-width="1" fill="none" fill-rule="evenodd" opacity="0.5">
        <g id="首页" transform="translate(-402.000000, -405.000000)" fill="#1F2C5C">
            <g id="弹开租车">
                <path d="M416.330127,412 L405.937822,406 L402.5,406 C402.223858,406 402,405.776142 402,405.5 L402,405.5 L402,405.5 C402,405.223858 402.223858,405 402.5,405 L402.5,405 L421.5,405 C421.776142,405 422,405.223858 422,405.5 L422,405.5 C422,405.776142 421.776142,406 421.5,406 L407.937822,406 L418.330127,412 L420,412 L420,412 C421.104569,412 422,412.895431 422,414 L422,423 C422,423.552285 421.552285,424 421,424 L418,424 C418,422.895431 417.104569,422 416,422 C414.895431,422 414,422.895431 414,424 L408,424 C408,422.895431 407.104569,422 406,422 C404.895431,422 404,422.895431 404,424 L403,424 C402.447715,424 402,423.552285 402,423 L402,414 L402,414 C402,412.895431 402.895431,412 404,412 L404,412 L416.330127,412 Z M406,425 C405.447715,425 405,424.552285 405,424 C405,423.447715 405.447715,423 406,423 C406.552285,423 407,423.447715 407,424 C407,424.552285 406.552285,425 406,425 Z M416,425 C415.447715,425 415,424.552285 415,424 C415,423.447715 415.447715,423 416,423 C416.552285,423 417,423.447715 417,424 C417,424.552285 416.552285,425 416,425 Z M416,414 C415.447715,414 415,414.447715 415,415 L415,417 C415,417.552285 415.447715,418 416,418 L422,418 L422,414 L416,414 Z M410,414 C409.447715,414 409,414.447715 409,415 L409,416 C409,416.552285 409.447715,417 410,417 L412,417 C412.552285,417 413,416.552285 413,416 L413,415 C413,414.447715 412.552285,414 412,414 L410,414 Z M404,414 L404,414 C403.447715,414 403,414.447715 403,415 L403,415 L403,416 C403,416.552285 403.447715,417 404,417 L406,417 C406.552285,417 407,416.552285 407,416 L407,415 C407,414.447715 406.552285,414 406,414 L404,414 Z" id="租车下拉"></path>
            </g>
        </g>
    </g>
</svg>