<?xml version="1.0" encoding="UTF-8"?>
<svg width="30px" height="24px" viewBox="0 0 30 24" version="1.1" xmlns="http://www.w3.org/2000/svg" xmlns:xlink="http://www.w3.org/1999/xlink">
    <!-- Generator: Sketch 47.1 (45422) - http://www.bohemiancoding.com/sketch -->
    <title>小孩</title>
    <desc>Created with Sketch.</desc>
    <defs>
        <linearGradient x1="0%" y1="0%" x2="100%" y2="100%" id="linearGradient-1">
            <stop stop-color="#42958A" offset="0%"></stop>
            <stop stop-color="#1F2C5C" offset="100%"></stop>
        </linearGradient>
    </defs>
    <g id="Page-1" stroke="none" stroke-width="1" fill="none" fill-rule="evenodd">
        <g id="首页" transform="translate(-1508.000000, -383.000000)" fill="url(#linearGradient-1)">
            <g id="弹开订票">
                <g id="人数" transform="translate(1390.000000, 365.000000)">
                    <path d="M125.134012,24.5340571 C125.822579,20.8158905 129.082446,18 133,18 C137.418278,18 141,21.581722 141,26 C141,30.418278 137.418278,34 133,34 C128.581722,34 125,30.418278 125,26 C125,25.4992759 125.046003,25.0092964 125.134012,24.5340571 C126.03423,24.8362522 126.997992,25 128,25 C131.201249,25 134.01213,23.3286311 135.607624,20.8109105 C135.384284,20.5146215 135.181065,20.20231 135,19.8760072 C133.635271,22.3354247 131.012027,24 128,24 C127.081904,24 126.19993,23.8453458 125.378708,23.5606679 C125.277537,23.8770227 125.195517,24.2019401 125.134012,24.5340563 L125.134012,24.5340571 Z M135,39.75 L135,39.9906311 C135,40.5480902 134.556647,41 133.990631,41 L132.009369,41 C131.45191,41 131,40.5566468 131,39.9906311 L131,39.75 L128,42 L128,36 L131,38.25 L131,38.0093689 C131,37.4519098 131.443353,37 132.009369,37 L133.990631,37 C134.54809,37 135,37.4433532 135,38.0093689 L135,38.25 L138,36 L138,42 L135,39.75 Z M124,37.1138777 L124,42 L142,42 L142,37.1138777 C145.64334,38.1303362 148,39.7486601 148,41.5714286 C148,41.7156309 147.98525,41.8585536 147.956281,42 L118.043719,42 C118.01475,41.8585536 118,41.7156309 118,41.5714286 C118,39.7486601 120.35666,38.1303362 124,37.1138777 Z M135.287959,20.354714 C136.493667,22.2093012 138.447178,23.532976 140.721076,23.8983237 C140.81283,24.2362056 140.882996,24.5829741 140.930004,24.9370567 C138.540919,24.654049 136.438664,23.4352212 135,21.6573343 C135.218252,21.3876209 135.421232,21.1050412 135.607624,20.8109105 L135.607624,20.8109105 C135.495954,20.662766 135.389314,20.5106159 135.287959,20.354714 Z M137,28 C137,30.209139 135.209139,32 133,32 C130.790861,32 129,30.209139 129,28 L137,28 Z" id="小孩"></path>
                </g>
            </g>
        </g>
    </g>
</svg>