<?xml version="1.0" encoding="UTF-8"?>
<svg width="30px" height="24px" viewBox="0 0 30 24" version="1.1" xmlns="http://www.w3.org/2000/svg" xmlns:xlink="http://www.w3.org/1999/xlink">
    <!-- Generator: Sketch 47.1 (45422) - http://www.bohemiancoding.com/sketch -->
    <title>始发地</title>
    <desc>Created with Sketch.</desc>
    <defs>
        <linearGradient x1="0%" y1="0%" x2="100%" y2="100%" id="linearGradient-1">
            <stop stop-color="#42958A" offset="0%"></stop>
            <stop stop-color="#1F2C5C" offset="100%"></stop>
        </linearGradient>
    </defs>
    <g id="Page-1" stroke="none" stroke-width="1" fill="none" fill-rule="evenodd">
        <g id="首页" transform="translate(-360.000000, -383.000000)" fill="url(#linearGradient-1)">
            <g id="弹开订票">
                <g id="始发地" transform="translate(340.000000, 365.000000)">
                    <path d="M36,42 C36,40.8954305 36.8954305,40 38,40 C38.0419915,40 38.0836807,40.0012941 38.12503,40.0038446 C38.5677342,38.276667 40.1347763,37 42,37 C43.612209,37 45.0016455,37.9538026 45.6348106,39.3279088 C46.0443185,39.118269 46.5083476,39 47,39 C48.6568542,39 50,40.3431458 50,42 L36,42 Z M29.7610984,29.2163214 L27.5644061,21.3178696 C26.5892034,17.81142 28.0328284,16.9506651 30.7698892,19.3785163 L39.0974107,26.7652661 L46.3744302,24.8548354 C47.9115384,24.4512994 49.4914505,25.3448742 49.9013957,26.843864 C50.3121768,28.3459101 49.402414,29.8898216 47.862,30.2942254 L26.3867547,35.9321062 C25.3649305,36.2003649 24.1881213,35.6498343 23.7577002,34.7011883 L20.1871583,26.8317324 C19.7569958,25.8836565 20.0927691,25.6154597 20.94397,26.2376991 L26.2717495,30.1323777 L29.7610984,29.2163214 Z"></path>
                </g>
            </g>
        </g>
    </g>
</svg>