<?xml version="1.0" encoding="UTF-8"?>
<svg width="28px" height="28px" viewBox="0 0 28 28" version="1.1" xmlns="http://www.w3.org/2000/svg" xmlns:xlink="http://www.w3.org/1999/xlink">
    <!-- Generator: Sketch 47.1 (45422) - http://www.bohemiancoding.com/sketch -->
    <title>菜单叉</title>
    <desc>Created with Sketch.</desc>
    <defs></defs>
    <g id="Page-1" stroke="none" stroke-width="1" fill="none" fill-rule="evenodd">
        <g id="首页" transform="translate(-20.000000, -16.000000)" fill="#FFFFFF">
            <g id="top">
                <g id="菜单键" transform="translate(20.000000, 16.000000)">
                    <path d="M11.4329031,12.7940554 C6.89586295,17.556309 3.25648542,22.6972243 0,28 L2.75759498,24.907769 L2.71128423,24.9698569 C5.80147334,21.361063 9.4323373,17.4451687 14,14.4451671 C18.5676627,17.4451687 22.1985267,21.361063 25.2887158,24.9698569 L25.242405,24.907769 L28,28 C24.7435146,22.6972243 21.1041371,17.556309 16.5670969,12.7940554 C21.7448699,9.24300647 25.6198145,4.6726521 28,0 C22.5099573,3.06453627 17.9330955,6.51405918 14,10.2351018 C10.0669045,6.51405918 5.49004275,3.06453627 0,0 C2.3801855,4.6726521 6.25513009,9.24300647 11.4329031,12.7940554 Z" id="菜单叉"></path>
                </g>
            </g>
        </g>
    </g>
</svg>