<?xml version="1.0" encoding="UTF-8"?>
<svg width="30px" height="24px" viewBox="0 0 30 24" version="1.1" xmlns="http://www.w3.org/2000/svg" xmlns:xlink="http://www.w3.org/1999/xlink">
    <!-- Generator: Sketch 47.1 (45422) - http://www.bohemiancoding.com/sketch -->
    <title>日期</title>
    <desc>Created with Sketch.</desc>
    <defs>
        <linearGradient x1="0%" y1="0%" x2="100%" y2="100%" id="linearGradient-1">
            <stop stop-color="#42958A" offset="0%"></stop>
            <stop stop-color="#1F2C5C" offset="100%"></stop>
        </linearGradient>
    </defs>
    <g id="Page-1" stroke="none" stroke-width="1" fill="none" fill-rule="evenodd">
        <g id="首页" transform="translate(-1060.000000, -383.000000)" fill="url(#linearGradient-1)">
            <g id="弹开订票">
                <g id="日期" transform="translate(1040.000000, 365.000000)">
                    <path d="M44.9999917,20 L48.008383,20 C49.1083227,20 50,20.8896739 50,21.991155 L50,40.008845 C50,41.1085295 49.1021596,42 48.008383,42 L21.991617,42 C20.8916773,42 20,41.1103261 20,40.008845 L20,21.991155 C20,20.8914705 20.8978404,20 21.991617,20 L25.0000085,20 C25.0000029,20.0019723 25,20.0039454 25,20.0059191 L25,22.9940809 C25,24.1134452 25.8944962,25 26.9979131,25 L29.0020869,25 C30.1017394,25 31,24.1019194 31,22.9940809 L31,20.0059191 C31,20.0039453 30.9999972,20.0019723 30.9999917,20 L39.0000085,20 C39.0000029,20.0019723 39,20.0039454 39,20.0059191 L39,22.9940809 C39,24.1134452 39.8944962,25 40.9979131,25 L43.0020869,25 C44.1017394,25 45,24.1019194 45,22.9940809 L45,20.0059191 C45,20.0039453 44.9999972,20.0019723 44.9999917,20 Z M22,29.0027601 L22,37.9972399 C22,39.1064574 22.8940894,40 23.9970047,40 L46.0029953,40 C47.1050211,40 48,39.1033337 48,37.9972399 L48,29.0027601 C48,27.8935426 47.1059106,27 46.0029953,27 L23.9970047,27 C22.8949789,27 22,27.8966663 22,29.0027601 Z M26,19.9979131 C26,18.8944962 26.8877296,18 28,18 C29.1045695,18 30,18.8982606 30,19.9979131 L30,22.0020869 C30,23.1055038 29.1122704,24 28,24 C26.8954305,24 26,23.1017394 26,22.0020869 L26,19.9979131 Z M40,19.9979131 C40,18.8944962 40.8877296,18 42,18 C43.1045695,18 44,18.8982606 44,19.9979131 L44,22.0020869 C44,23.1055038 43.1122704,24 42,24 C40.8954305,24 40,23.1017394 40,22.0020869 L40,19.9979131 Z M26,29 L30,29 L30,33 L26,33 L26,29 Z M33,29 L37,29 L37,33 L33,33 L33,29 Z M40,29 L44,29 L44,33 L40,33 L40,29 Z M26,34 L30,34 L30,38 L26,38 L26,34 Z M33,34 L37,34 L37,38 L33,38 L33,34 Z M40,34 L44,34 L44,38 L40,38 L40,34 Z"></path>
                </g>
            </g>
        </g>
    </g>
</svg>