<?xml version="1.0" encoding="UTF-8"?>
<svg width="50px" height="50px" viewBox="0 0 50 50" version="1.1" xmlns="http://www.w3.org/2000/svg" xmlns:xlink="http://www.w3.org/1999/xlink">
    <!-- Generator: Sketch 47.1 (45422) - http://www.bohemiancoding.com/sketch -->
    <title>航班状态（选中）</title>
    <desc>Created with Sketch.</desc>
    <defs></defs>
    <g id="Page-1" stroke="none" stroke-width="1" fill="none" fill-rule="evenodd">
        <g id="首页" transform="translate(-60.000000, -435.000000)" fill="#1F2C5C">
            <path d="M84.2949622,460.709886 C84.4762669,460.889581 84.7263312,461 85.0024733,461 L94.9975267,461 C95.544239,461 96,460.552285 96,460 C96,459.443865 95.5511774,459 94.9975267,459 L86,459 L86,443.993398 C86,443.444946 85.5522847,443 85,443 C84.4438648,443 84,443.444759 84,443.993398 L84,460.006602 C84,460.28083 84.1119302,460.529181 84.2928966,460.708974 Z M85,485 C71.1928813,485 60,473.807119 60,460 C60,446.192881 71.1928813,435 85,435 C98.8071187,435 110,446.192881 110,460 C110,473.807119 98.8071187,485 85,485 Z M85,481 C96.5979797,481 106,471.59798 106,460 C106,448.40202 96.5979797,439 85,439 C73.4020203,439 64,448.40202 64,460 C64,471.59798 73.4020203,481 85,481 Z M85,479 C74.5065898,479 66,470.49341 66,460 C66,449.50659 74.5065898,441 85,441 C95.4934102,441 104,449.50659 104,460 C104,470.49341 95.4934102,479 85,479 Z M70,460 C70,459.447715 69.5522847,459 69,459 C68.4477153,459 68,459.447715 68,460 C68,469.388841 75.6111593,477 85,477 C85.5522847,477 86,476.552285 86,476 C86,475.447715 85.5522847,475 85,475 C76.7157288,475 70,468.284271 70,460 Z" id="航班状态（选中）"></path>
        </g>
    </g>
</svg>