<?xml version="1.0" encoding="UTF-8"?>
<svg width="30px" height="22px" viewBox="0 0 30 22" version="1.1" xmlns="http://www.w3.org/2000/svg" xmlns:xlink="http://www.w3.org/1999/xlink">
    <!-- Generator: Sketch 49.3 (51167) - http://www.bohemiancoding.com/sketch -->
    <title>酒店日期</title>
    <desc>Created with Sketch.</desc>
    <defs>
        <linearGradient x1="0%" y1="0%" x2="100%" y2="100%" id="linearGradient-1">
            <stop stop-color="#00908C" offset="0%"></stop>
            <stop stop-color="#1F2C5C" offset="100%"></stop>
        </linearGradient>
    </defs>
    <g id="Page-1" stroke="none" stroke-width="1" fill="none" fill-rule="evenodd">
        <g id="机+酒页面" transform="translate(-725.000000, -242.000000)" fill="url(#linearGradient-1)">
            <g id="搜索条件" transform="translate(355.000000, 90.000000)">
                <g id="酒店日期" transform="translate(350.000000, 132.000000)">
                    <path d="M46.9999587,29 L48.0049107,29 C49.1067681,29 50,29.8935426 50,31.0027601 L50,39.9972399 C50,41.1033337 49.1073772,42 48.0049107,42 L33.9950893,42 C32.8932319,42 32,41.1064574 32,39.9972399 L32,31.0027601 C32,29.8966663 32.8926228,29 33.9950893,29 L35.0000418,29 C35.0000139,29.0031196 35,29.0062426 35,29.0093689 L35,30.9906311 C35,31.5566468 35.4519098,32 36.0093689,32 L37.9906311,32 C38.5566468,32 39,31.5480902 39,30.9906311 L39,29.0093689 C39,29.0062422 38.9999862,29.0031192 38.9999587,29 L43.0000418,29 C43.0000139,29.0031196 43,29.0062426 43,29.0093689 L43,30.9906311 C43,31.5566468 43.4519098,32 44.0093689,32 L45.9906311,32 C46.5566468,32 47,31.5480902 47,30.9906311 L47,29.0093689 C47,29.0062422 46.9999862,29.0031192 46.9999587,29 Z M26,40 L26,27 L22,27 C20.8954305,27 20,26.1045695 20,25 L20,22 C20,20.8954305 20.8954305,20 22,20 L48,20 C49.1045695,20 50,20.8954305 50,22 L50,25 C50,26.1045695 49.1045695,27 48,27 L28,27 L28,40 L30,40 L30,42 L24,42 L24,40 L26,40 Z M33,34.9981014 L33,39.0018986 C33,40.1132936 33.8927712,41 34.9940603,41 L47.0059397,41 C48.1054862,41 49,40.1054196 49,39.0018986 L49,34.9981014 C49,33.8867064 48.1072288,33 47.0059397,33 L34.9940603,33 C33.8945138,33 33,33.8945804 33,34.9981014 Z M36,28.9989566 C36,28.4472481 36.4438648,28 37,28 C37.5522847,28 38,28.4426603 38,28.9989566 L38,30.0010434 C38,30.5527519 37.5561352,31 37,31 C36.4477153,31 36,30.5573397 36,30.0010434 L36,28.9989566 Z M44,28.9989566 C44,28.4472481 44.4438648,28 45,28 C45.5522847,28 46,28.4426603 46,28.9989566 L46,30.0010434 C46,30.5527519 45.5561352,31 45,31 C44.4477153,31 44,30.5573397 44,30.0010434 L44,28.9989566 Z M36,34 L38,34 L38,36 L36,36 L36,34 Z M40,34 L42,34 L42,36 L40,36 L40,34 Z M44,34 L46,34 L46,36 L44,36 L44,34 Z M36,37 L38,37 L38,39 L36,39 L36,37 Z M40,37 L42,37 L42,39 L40,39 L40,37 Z M44,37 L46,37 L46,39 L44,39 L44,37 Z M26.852,20.56 L25.508,20.56 L25.508,22.744 L23.292,22.744 L23.292,20.56 L21.94,20.56 L21.94,26 L23.292,26 L23.292,23.96 L25.508,23.96 L25.508,26 L26.852,26 L26.852,20.56 Z M30.564,20.448 C28.924,20.448 27.684,21.696 27.684,23.28 C27.684,24.864 28.924,26.112 30.564,26.112 C32.204,26.112 33.444,24.864 33.444,23.28 C33.444,21.696 32.204,20.448 30.564,20.448 Z M30.564,24.856 C29.684,24.856 29.052,24.136 29.052,23.28 C29.052,22.424 29.684,21.704 30.564,21.704 C31.444,21.704 32.076,22.424 32.076,23.28 C32.076,24.136 31.444,24.856 30.564,24.856 Z M38.796,21.768 L38.796,20.56 L33.98,20.56 L33.98,21.768 L35.716,21.768 L35.716,26 L37.06,26 L37.06,21.768 L38.796,21.768 Z M40.812,21.736 L43.572,21.736 L43.572,20.56 L39.46,20.56 L39.46,26 L43.572,26 L43.572,24.824 L40.812,24.824 L40.812,23.88 L43.228,23.88 L43.228,22.728 L40.812,22.728 L40.812,21.736 Z M48.38,24.808 L45.692,24.808 L45.692,20.56 L44.34,20.56 L44.34,26 L48.38,26 L48.38,24.808 Z"></path>
                </g>
            </g>
        </g>
    </g>
</svg>