<?xml version="1.0" encoding="UTF-8"?>
<svg width="30px" height="24px" viewBox="0 0 30 24" version="1.1" xmlns="http://www.w3.org/2000/svg" xmlns:xlink="http://www.w3.org/1999/xlink">
    <!-- Generator: Sketch 49.3 (51167) - http://www.bohemiancoding.com/sketch -->
    <title>国家区号</title>
    <desc>Created with Sketch.</desc>
    <defs>
        <linearGradient x1="0%" y1="0%" x2="100%" y2="100%" id="linearGradient-1">
            <stop stop-color="#00908C" offset="0%"></stop>
            <stop stop-color="#1F2C5C" offset="100%"></stop>
        </linearGradient>
    </defs>
    <g id="Page-1" stroke="none" stroke-width="1" fill="none" fill-rule="evenodd">
        <g id="信息录入" transform="translate(-482.000000, -230.000000)" fill="url(#linearGradient-1)">
            <path d="M508.997192,242.262205 C508.857714,248.768545 503.539793,254 497,254 C496.985852,254 496.97171,253.999976 496.957573,253.999927 C496.939625,253.999993 496.921675,254.000014 496.903723,253.999991 C496.605004,253.999991 496.307119,253.986421 496.010757,253.959809 C491.903973,253.624701 488.382359,251.221741 486.488842,247.793857 C484.018395,247.665649 482.309073,247.070918 482.037352,245.843654 C481.868063,245.079605 482.274978,244.25878 483.242566,243.40389 C483.470301,243.202759 483.811023,243.232536 484.00359,243.470399 C484.196157,243.708263 484.167647,244.064138 483.939912,244.265269 C483.338859,244.792479 483.020471,245.287245 483.087255,245.587349 C483.365261,246.842918 489.190978,247.34904 497.68649,245.288867 C506.182003,243.228694 511.198549,240.09788 510.911224,238.8342 C510.852205,238.564917 510.453056,238.298879 509.816281,238.104217 C509.631508,238.046262 509.490373,237.88975 509.446041,237.693638 C509.401708,237.497526 509.460912,237.291608 509.601352,237.153451 C509.741791,237.015294 509.94213,236.965888 510.126903,237.023843 C511.190783,237.349902 511.812028,237.873867 511.967339,238.579517 L511.962679,238.581139 C512.230593,239.764249 511.036944,241.044551 508.997192,242.262205 Z M485.627225,245.839046 C485.220486,244.633684 485,243.342591 485,242 C485,235.372583 490.372583,230 497,230 C503.000304,230 507.972014,234.403937 508.859175,240.155856 C505.86032,241.905423 502.055964,243.44219 497.80157,244.502929 C493.394865,245.601644 489.174711,246.02274 485.627225,245.839046 Z M491.47219,233.262108 L491.475467,233.260556 C491.168416,233.306647 490.958756,233.579479 491.006872,233.87034 C491.069133,234.242727 491.332922,235.474707 492.143951,235.761756 C492.242258,235.797443 492.334011,235.831578 492.422487,235.865714 C492.929246,236.087511 493.481374,236.200878 494.039629,236.197759 C494.318165,236.197759 494.750713,236.608936 494.994841,236.942533 C495.116153,237.493895 495.199886,238.052077 495.245523,238.61362 C495.260705,239.042416 495.311655,239.469405 495.397898,239.890597 C495.430667,240.072653 495.460159,240.254709 495.486374,240.436765 C495.512887,240.754885 495.793315,241.000179 496.130282,241 C496.584131,241 496.970803,240.523655 497.616349,239.729229 C497.772001,239.543036 497.976807,239.269952 498.034152,239.232713 C498.091498,239.195474 498.166866,239.152029 498.255342,239.100826 C498.684614,238.855671 499.331799,238.483284 499.42519,237.873501 C499.456051,237.467609 499.459882,237.06028 499.436659,236.653933 C499.421913,236.231894 499.40389,235.533669 499.436659,235.347475 C499.801705,235.047476 500.199984,234.785797 500.62453,234.567014 L502.607045,234.039466 L502.616876,234.039466 C502.902786,233.947864 503.061749,233.659225 502.97744,233.384769 C502.89313,233.110313 502.595476,232.947468 502.302295,233.015402 L500.252603,233.561569 C500.208585,233.573228 500.166222,233.589901 500.126443,233.611221 C499.118801,234.155837 498.535515,234.602701 498.392971,234.939401 C498.279918,235.206279 498.279918,235.676417 498.304495,236.688069 C498.314326,237.085281 498.350371,237.600417 498.304495,237.726097 C498.258619,237.851778 497.829347,238.098484 497.665503,238.191581 C497.539342,238.264507 497.427928,238.329675 497.350922,238.383981 C497.208377,238.489491 497.044533,238.684994 496.716844,239.083758 C496.643114,239.173752 496.548085,239.291674 496.44814,239.411149 C496.399946,239.148614 496.372018,238.883102 496.364579,238.616723 C496.364579,238.044178 496.10079,236.778062 496.071298,236.635314 C496.05796,236.571957 496.03241,236.511469 495.99593,236.456878 C495.904177,236.320336 495.089871,235.133353 494.029799,235.133353 C493.61796,235.134243 493.211266,235.046711 492.84029,234.877337 C492.743621,234.840098 492.643676,234.802859 492.547008,234.768724 C492.406102,234.686488 492.193105,234.160492 492.116098,233.705869 C492.093133,233.56603 492.0123,233.440611 491.891469,233.357339 C491.770639,233.274066 491.619761,233.239797 491.47219,233.262108 Z M503.937203,250.327044 C504.045445,250.307126 504.143634,250.245285 504.209148,250.157752 C504.347543,249.970471 504.314041,249.714591 504.134271,249.585856 C503.903764,249.421387 503.110513,248.907926 502.528169,249.185808 C502.457108,249.219017 502.390346,249.249574 502.325321,249.278392 C501.938946,249.429516 501.586013,249.662204 501.291608,249.959918 C501.143893,250.107634 500.696439,250.118967 500.390055,250.071519 C500.033315,249.843451 499.692889,249.591837 499.370883,249.318236 C499.135428,249.098884 498.881963,248.899459 498.612855,248.721826 C498.498927,248.642654 498.386736,248.561745 498.276284,248.479098 C498.093515,248.32445 497.814708,248.343082 497.6361,248.521881 C497.39541,248.762571 497.442966,249.220255 497.521921,249.983915 C497.538118,250.165206 497.574329,250.418645 497.563665,250.468806 C497.553002,250.518967 497.536072,250.581977 497.516305,250.656053 C497.418663,251.013722 497.272929,251.554432 497.546788,251.927346 C497.745677,252.158969 497.959665,252.37702 498.187479,252.580202 C498.660627,253.053351 499.319339,252.485154 498.769796,251.961679 C498.553929,251.756238 498.261621,251.502163 498.219298,251.411181 C498.176975,251.320199 498.273795,250.961707 498.311315,250.825444 C498.339547,250.719862 498.364073,250.626216 498.376111,250.556576 C498.395752,250.425026 498.378962,250.234453 498.341268,249.849193 C498.332643,249.762366 498.320503,249.649431 498.310146,249.533066 C498.474935,249.646738 498.630554,249.772736 498.775768,249.910059 C499.079406,250.213697 499.890761,250.745261 499.982105,250.805324 C500.022779,250.831851 500.068407,250.85038 500.116705,250.859984 C500.237776,250.883737 501.29912,251.081379 501.861309,250.519191 C502.079247,250.300308 502.34135,250.131047 502.627914,250.024132 C502.698929,249.992614 502.771682,249.959359 502.841051,249.926196 C502.959389,249.895082 503.3513,250.061075 503.633239,250.261335 C503.719579,250.323317 503.82896,250.346963 503.937203,250.327044 Z" id="国家区号"></path>
        </g>
    </g>
</svg>