<?xml version="1.0" encoding="UTF-8"?>
<svg width="30px" height="24px" viewBox="0 0 30 24" version="1.1" xmlns="http://www.w3.org/2000/svg" xmlns:xlink="http://www.w3.org/1999/xlink">
    <!-- Generator: Sketch 47.1 (45422) - http://www.bohemiancoding.com/sketch -->
    <title>婴儿</title>
    <desc>Created with Sketch.</desc>
    <defs>
        <linearGradient x1="0%" y1="0%" x2="100%" y2="100%" id="linearGradient-1">
            <stop stop-color="#42958A" offset="0%"></stop>
            <stop stop-color="#1F2C5C" offset="100%"></stop>
        </linearGradient>
    </defs>
    <g id="Page-1" stroke="none" stroke-width="1" fill="none" fill-rule="evenodd">
        <g id="首页" transform="translate(-1605.000000, -383.000000)" fill="url(#linearGradient-1)">
            <g id="弹开订票">
                <g id="人数" transform="translate(1390.000000, 365.000000)">
                    <path d="M235.998316,33.7989899 L235.195265,32.9959386 C234.759704,32.5603772 234.038496,32.5561167 233.596296,32.9983165 C233.151014,33.4435991 233.153032,34.156399 233.593918,34.5972854 L234.207925,35.2112925 C233.402611,35.2559033 232.61015,35.5858092 231.994949,36.2010101 C230.66835,37.5276093 230.66835,39.6784515 231.994949,41.0050506 C233.321549,42.3316498 235.472391,42.3316498 236.79899,41.0050506 C237.414191,40.3898497 237.744097,39.597389 237.788707,38.7920746 L238.402715,39.4060817 C238.838276,39.8416431 239.559484,39.8459035 240.001684,39.4037038 C240.446966,38.9584211 240.444948,38.2456213 240.004061,37.8047349 L239.20101,37.0016834 C238.75881,36.5594838 238.938047,35.6632996 239.601347,35 C239.809139,34.7922081 240.039785,34.6319213 240.27217,34.5233628 C241.50963,35.04965 242.995848,34.8081924 244.005051,33.7989899 C245.33165,32.4723907 245.33165,30.3215485 244.005051,28.9949494 C242.678451,27.6683502 240.527609,27.6683502 239.20101,28.9949494 C238.191808,30.0041519 237.95035,31.4903699 238.476637,32.7278299 C238.368079,32.9602146 238.207792,33.1908613 238,33.3986532 C237.3367,34.0619527 236.440516,34.2411896 235.998316,33.7989899 Z M224.09931,18.074909 C224.282454,18.6164803 224.313069,19.2162615 224.154003,19.8099044 C223.725178,21.4103027 222.080167,22.3600502 220.479768,21.9312247 C220.213035,21.8597538 219.938867,22.0180451 219.867396,22.2847781 C219.795925,22.5515112 219.954216,22.8256797 220.220949,22.8971506 C222.354814,23.4689178 224.548162,22.2025879 225.119929,20.0687234 C225.279624,19.4727321 225.295931,18.8721005 225.189996,18.3034558 C228.543637,19.2558669 231,22.3410763 231,26 C231,30.418278 227.418278,34 223,34 C218.581722,34 215,30.418278 215,26 C215,21.581722 218.581722,18 223,18 C223.372947,18 223.739934,18.02552 224.09931,18.074909 Z M235.998316,40.2043772 C235.113917,41.0887767 233.680022,41.0887767 232.795623,40.2043772 C231.911223,39.3199778 231.911223,37.886083 232.795623,37.0016835 C233.680022,36.1172841 235.113917,36.1172841 235.998316,37.0016835 C236.882716,37.886083 236.882716,39.3199778 235.998316,40.2043772 Z M227,28 L219,28 C219,30.209139 220.790861,32 223,32 C225.209139,32 227,30.209139 227,28 Z" id="婴儿"></path>
                </g>
            </g>
        </g>
    </g>
</svg>