<?xml version="1.0" encoding="UTF-8"?>
<svg width="38px" height="24px" viewBox="0 0 38 24" version="1.1" xmlns="http://www.w3.org/2000/svg" xmlns:xlink="http://www.w3.org/1999/xlink">
    <!-- Generator: Sketch 47.1 (45422) - http://www.bohemiancoding.com/sketch -->
    <title>菜单键</title>
    <desc>Created with Sketch.</desc>
    <defs></defs>
    <g id="Page-1" stroke="none" stroke-width="1" fill="none" fill-rule="evenodd">
        <g id="首页" transform="translate(-20.000000, -18.000000)" fill="#FFFFFF">
            <g id="top">
                <g id="菜单键" transform="translate(20.000000, 16.000000)">
                    <path d="M0.28057775,17.328394 C0.174848228,17.3344417 0.0797056742,17.3399166 0,17.3445604 L2.33693599,16.8352528 C11.4565539,14.8973927 25.1101742,14.2725007 34.6441879,17.2777865 C30.040794,18.6354061 24.210572,19.561144 18.4026124,18.4730942 C13.4344421,17.5419585 7.71308156,16.7246319 2.3955595,17.2181874 C2.43943136,17.2044519 2.44910205,17.1984503 2.378059,17.2070515 C2.19671461,17.2202549 1.02691478,17.2857427 0.309134975,17.3267613 C0.945577265,17.4500675 2.25542382,17.7854314 2.54530854,17.8581814 C8.2318898,19.5927693 14.1315279,21.9073591 18.498805,24.6642772 C19.1515245,25.0778014 19.9996179,25.8597241 20.0254761,26 C10.6623611,25.4990937 7.65935486,19.5381402 0.28057775,17.328394 L0.28057775,17.328394 Z M4.06059688,15.4882613 L4.12932335,15.4480734 L0.279991516,17.2685663 C10.6342808,9.88867146 22.1617364,3.72117492 38,2 C33.4495497,5.82323901 27.2316136,8.79977534 20.083011,9.86971811 C14.1142,10.7594555 8.72601211,13.1658546 4.06059688,15.4882613 Z"></path>
                </g>
            </g>
        </g>
    </g>
</svg>