<?xml version="1.0" encoding="UTF-8"?>
<svg width="30px" height="24px" viewBox="0 0 30 24" version="1.1" xmlns="http://www.w3.org/2000/svg" xmlns:xlink="http://www.w3.org/1999/xlink">
    <!-- Generator: Sketch 49.3 (51167) - http://www.bohemiancoding.com/sketch -->
    <title>护照号</title>
    <desc>Created with Sketch.</desc>
    <defs>
        <linearGradient x1="0%" y1="0%" x2="100%" y2="100%" id="linearGradient-1">
            <stop stop-color="#42958A" offset="0%"></stop>
            <stop stop-color="#1F2C5C" offset="100%"></stop>
        </linearGradient>
    </defs>
    <g id="Page-1" stroke="none" stroke-width="1" fill="none" fill-rule="evenodd">
        <g id="逾重行李" transform="translate(-1000.000000, -330.000000)" fill="url(#linearGradient-1)">
            <g id="填写信息栏" transform="translate(280.000000, 212.000000)">
                <g id="护照号" transform="translate(700.000000, 100.000000)">
                    <path d="M21,18 L49,18 C49.5522847,18 50,18.4477153 50,19 L50,41 C50,41.5522847 49.5522847,42 49,42 L21,42 C20.4477153,42 20,41.5522847 20,41 L20,19 C20,18.4477153 20.4477153,18 21,18 Z M34.9985094,20.0030125 C30.0260053,20.0030125 26.0030125,24.0305084 26.0030125,29.0030125 C26.0030125,33.9755166 30.0260053,38.0030125 34.9985094,38.0030125 C39.9710135,38.0030125 44.0030125,33.9755166 44.0030125,29.0030125 C44.0030125,24.0305084 39.9710135,20.0030125 34.9985094,20.0030125 Z M41.2310106,25.4030208 L38.5760063,25.4030208 C38.2835122,24.278013 37.8739997,23.1980155 37.3340009,22.1990323 C38.9900012,22.7660082 40.366996,23.9135107 41.2310106,25.4030208 Z M35.0030125,21.8345093 C35.7545118,22.9145068 36.3395208,24.1160051 36.7220148,25.403 L33.2840102,25.403 C33.6665042,24.1160051 34.2515132,22.9145068 35.0030125,21.8345093 Z M28.0370037,30.8030084 C27.888505,30.2270055 27.8030083,29.6240048 27.8030083,29.0030125 C27.8030083,28.3820202 27.888505,27.7790195 28.0370037,27.2030166 L31.0745018,27.2030166 C31.0024937,27.792508 30.9530011,28.3910056 30.9530011,29.0030125 C30.9530011,29.6150194 31.0024937,30.213517 31.0790049,30.8030084 L28.0370037,30.8030084 Z M28.7705113,32.6030042 L31.4255156,32.6030042 C31.7180097,33.728012 32.1275222,34.8080095 32.667521,35.8114958 C31.0115207,35.2444992 29.6345052,34.0925143 28.7705113,32.6030042 Z M31.4255156,25.4030208 L28.7705113,25.4030208 C29.6345052,23.9135315 31.0115207,22.7615259 32.6675003,22.1945292 C32.1275015,23.1980155 31.7180097,24.278013 31.4255156,25.4030208 Z M35.0030125,36.1715157 C34.2560163,35.0915182 33.6710073,33.8900199 33.2840102,32.603025 L36.7220147,32.603025 C36.334997,33.8899991 35.7500087,35.0914974 35.0030125,36.1715157 Z M37.1090118,30.8030084 L32.8970132,30.8030084 C32.8115165,30.213517 32.7530177,29.6150194 32.7530177,29.0030125 C32.7530177,28.3910056 32.8115165,27.792508 32.8970132,27.2030166 L37.1090118,27.2030166 C37.1945085,27.792508 37.2530073,28.3910056 37.2530073,29.0030125 C37.2530073,29.6150194 37.1945085,30.213517 37.1090118,30.8030084 Z M37.338504,35.8070134 C37.8785028,34.8035064 38.2879945,33.728012 38.5805094,32.603025 L41.2355137,32.603025 C40.3670167,34.0925143 38.9900012,35.239996 37.338504,35.8070134 Z M38.9269993,30.8030084 C38.9990074,30.213517 39.0530032,29.6150194 39.0530032,29.0030125 C39.0530032,28.3910056 39.0035105,27.792508 38.9269993,27.2030166 L41.9644975,27.2030166 C42.1129961,27.7790195 42.2029959,28.3820202 42.2029959,29.0030125 C42.2029959,29.6240048 42.1174992,30.2270055 41.9644975,30.8030084 L38.9269993,30.8030084 Z M26.5,39 C26.2238576,39 26,39.2238576 26,39.5 C26,39.7761424 26.2238576,40 26.5,40 L43.5,40 C43.7761424,40 44,39.7761424 44,39.5 C44,39.2238576 43.7761424,39 43.5,39 L26.5,39 Z"></path>
                </g>
            </g>
        </g>
    </g>
</svg>