<?xml version="1.0" encoding="UTF-8"?>
<svg width="14px" height="14px" viewBox="0 0 14 14" version="1.1" xmlns="http://www.w3.org/2000/svg" xmlns:xlink="http://www.w3.org/1999/xlink">
    <!-- Generator: Sketch 47.1 (45422) - http://www.bohemiancoding.com/sketch -->
    <title>感叹号提示</title>
    <desc>Created with Sketch.</desc>
    <defs></defs>
    <g id="Page-1" stroke="none" stroke-width="1" fill="none" fill-rule="evenodd">
        <g id="首页" transform="translate(-1362.000000, -551.000000)" fill="#8EC060">
            <g id="弹开订票">
                <g id="选择人数" transform="translate(1270.000000, 435.000000)">
                    <g id="Adult" transform="translate(40.000000, 83.000000)">
                        <path d="M59,47 C55.1340068,47 52,43.8659932 52,40 C52,36.1340068 55.1340068,33 59,33 C62.8659932,33 66,36.1340068 66,40 C66,43.8659932 62.8659932,47 59,47 Z M58,36.0029293 L58,40.9970707 C58,41.5621186 58.4477153,42 59,42 C59.5561352,42 60,41.5509732 60,40.9970707 L60,36.0029293 C60,35.4378814 59.5522847,35 59,35 C58.4438648,35 58,35.4490268 58,36.0029293 Z M59,45 C59.5522847,45 60,44.5522847 60,44 C60,43.4477153 59.5522847,43 59,43 C58.4477153,43 58,43.4477153 58,44 C58,44.5522847 58.4477153,45 59,45 Z" id="感叹号提示"></path>
                    </g>
                </g>
            </g>
        </g>
    </g>
</svg>