<?xml version="1.0" encoding="UTF-8"?>
<svg width="20px" height="24px" viewBox="0 0 20 24" version="1.1" xmlns="http://www.w3.org/2000/svg" xmlns:xlink="http://www.w3.org/1999/xlink">
    <!-- Generator: Sketch 47.1 (45422) - http://www.bohemiancoding.com/sketch -->
    <title>房间</title>
    <desc>Created with Sketch.</desc>
    <defs>
        <linearGradient x1="0%" y1="0%" x2="100%" y2="100%" id="linearGradient-1">
            <stop stop-color="#42958A" offset="0%"></stop>
            <stop stop-color="#1F2C5C" offset="100%"></stop>
        </linearGradient>
    </defs>
    <g id="Page-1" stroke="none" stroke-width="1" fill="none" fill-rule="evenodd">
        <g id="首页" transform="translate(-1415.000000, -383.000000)" fill="url(#linearGradient-1)">
            <g id="弹开订酒店">
                <g id="房间" transform="translate(1390.000000, 365.000000)">
                    <path d="M25,20.0049466 C25,18.8976452 25.8982124,18 26.9907951,18 L43.0092049,18 C44.1086907,18 45,18.8970262 45,20.0049466 L45,39.9950534 C45,41.1023548 44.1017876,42 43.0092049,42 L26.9907951,42 C25.8913093,42 25,41.1029738 25,39.9950534 L25,20.0049466 Z M27,20.991155 L27,39.008845 C27,40.1103261 27.8913969,40.9363288 28.9909907,40.8577864 L39.0090093,40.1422136 C40.1029399,40.0640757 41,39.1086907 41,38.0092049 L41,21.9907951 C41,20.8982124 40.1086031,19.9363288 39.0090093,19.8577864 L28.9909907,19.1422136 C27.8970601,19.0640757 27,19.8914705 27,20.991155 Z M37,29.0093689 C37,28.4519098 37.4438648,28 38,28 C38.5522847,28 39,28.4433532 39,29.0093689 L39,30.9906311 C39,31.5480902 38.5561352,32 38,32 C37.4477153,32 37,31.5566468 37,30.9906311 L37,29.0093689 Z"></path>
                </g>
            </g>
        </g>
    </g>
</svg>