<?xml version="1.0" encoding="UTF-8"?>
<svg width="30px" height="24px" viewBox="0 0 30 24" version="1.1" xmlns="http://www.w3.org/2000/svg" xmlns:xlink="http://www.w3.org/1999/xlink">
    <!-- Generator: Sketch 49.3 (51167) - http://www.bohemiancoding.com/sketch -->
    <title>Combined Shape</title>
    <desc>Created with Sketch.</desc>
    <defs>
        <linearGradient x1="0%" y1="0%" x2="100%" y2="100%" id="linearGradient-1">
            <stop stop-color="#00908C" offset="0%"></stop>
            <stop stop-color="#1F2C5C" offset="100%"></stop>
        </linearGradient>
    </defs>
    <g id="Page-1" stroke="none" stroke-width="1" fill="none" fill-rule="evenodd">
        <g id="信息录入" transform="translate(-1000.000000, -330.000000)" fill="url(#linearGradient-1)">
            <g id="填写信息栏" transform="translate(280.000000, 212.000000)">
                <g id="手机号" transform="translate(700.000000, 100.000000)">
                    <path d="M37,28 C38.6568542,28 40,26.6568542 40,25 C40,23.3431458 38.6568542,22 37,22 C36.4477153,22 36,21.5522847 36,21 C36,20.4477153 36.4477153,20 37,20 C39.7614237,20 42,22.2385763 42,25 C42,27.7614237 39.7614237,30 37,30 C36.4477153,30 36,29.5522847 36,29 C36,28.4477153 36.4477153,28 37,28 Z M43,30 C45.7614237,30 48,27.7614237 48,25 C48,22.2385763 45.7614237,20 43,20 C42.4477153,20 42,19.5522847 42,19 C42,18.4477153 42.4477153,18 43,18 C46.8659932,18 50,21.1340068 50,25 C50,28.8659932 46.8659932,32 43,32 C42.4477153,32 42,31.5522847 42,31 C42,30.4477153 42.4477153,30 43,30 Z M37.9994217,42 C28.0595145,41.9996875 20.0015443,33.942477 20.0000002,24.0028575 C20.0000001,24.0025379 20,24.0022183 20,24.0018986 L20,19.9981014 C20,18.8945804 20.8867064,18 21.9981014,18 L26.0018986,18 C27.1054196,18 28,18.8867064 28,19.9981014 L28,24.0018986 C28,25.1054196 27.1132936,26 26.0018986,26 L24.1417777,26 C25.0188032,32.1313823 29.8686177,36.9811968 36,37.8582223 L36,35.9981014 C36,34.8945804 36.8874333,34 37.999615,34 L44.000385,34 C45.1047419,34 46,34.8867064 46,35.9981014 L46,40.0018986 C46,41.1054196 45.1125667,42 44.000385,42 L37.999615,42 Z" id="Combined-Shape"></path>
                </g>
            </g>
        </g>
    </g>
</svg>