<?xml version="1.0" encoding="UTF-8"?>
<svg width="30px" height="24px" viewBox="0 0 30 24" version="1.1" xmlns="http://www.w3.org/2000/svg" xmlns:xlink="http://www.w3.org/1999/xlink">
    <!-- Generator: Sketch 49.3 (51167) - http://www.bohemiancoding.com/sketch -->
    <title>飞机票号</title>
    <desc>Created with Sketch.</desc>
    <defs>
        <linearGradient x1="0%" y1="0%" x2="100%" y2="100%" id="linearGradient-1">
            <stop stop-color="#42958A" offset="0%"></stop>
            <stop stop-color="#1F2C5C" offset="100%"></stop>
        </linearGradient>
    </defs>
    <g id="Page-1" stroke="none" stroke-width="1" fill="none" fill-rule="evenodd">
        <g id="信息录入" transform="translate(-1000.000000, -230.000000)" fill="url(#linearGradient-1)" fill-rule="nonzero">
            <g id="填写信息栏" transform="translate(280.000000, 212.000000)">
                <g id="护照号" transform="translate(700.000000, 0.000000)">
                    <path d="M50,28 L50,32 C50,33.1045695 49.1045695,34 48,34 L22,34 C20.8954305,34 20,33.1045695 20,32 L20,28 C21.1045695,28 22,27.1045695 22,26 C22,24.8954305 21.1045695,24 20,24 L20,20 C20,18.8954305 20.8954305,18 22,18 L48,18 C49.1045695,18 50,18.8954305 50,20 L50,24 C48.8954305,24 48,24.8954305 48,26 C48,27.1045695 48.8954305,28 50,28 Z M44.5,19 C44.2238576,19 44,19.2238576 44,19.5 L44,20.5 C44,20.7761424 44.2238576,21 44.5,21 C44.7761424,21 45,20.7761424 45,20.5 L45,19.5 C45,19.2238576 44.7761424,19 44.5,19 Z M44.5,23 C44.2238576,23 44,23.2238576 44,23.5 L44,24.5 C44,24.7761424 44.2238576,25 44.5,25 C44.7761424,25 45,24.7761424 45,24.5 L45,23.5 C45,23.2238576 44.7761424,23 44.5,23 Z M44.5,27 C44.2238576,27 44,27.2238576 44,27.5 L44,28.5 C44,28.7761424 44.2238576,29 44.5,29 C44.7761424,29 45,28.7761424 45,28.5 L45,27.5 C45,27.2238576 44.7761424,27 44.5,27 Z M44.5,31 C44.2238576,31 44,31.2238576 44,31.5 L44,32.5 C44,32.7761424 44.2238576,33 44.5,33 C44.7761424,33 45,32.7761424 45,32.5 L45,31.5 C45,31.2238576 44.7761424,31 44.5,31 Z M34,23.8537051 L32.4353665,23.0374102 C32.4353665,23.0374102 31.8289551,22.9532373 31.2552573,23.0374102 C30.6809284,23.1292133 31.2552573,23.8537051 31.2552573,23.8537051 L32.4353665,24.67 L34,23.8537051 Z M37.7722255,23.2800495 L36.5534452,23.6899554 C36.5534452,23.6899554 30.9194649,26.3994857 30.4762908,26.5352888 C30.0394997,26.6723573 29.667637,26.5352888 29.667637,26.5352888 C29.667637,26.5352888 29.0283393,26.1329751 28.4488911,25.7167083 C27.8032104,25.5288547 28.0439122,26.1266141 28.0439122,26.1266141 C28.0439122,26.1266141 28.4615885,27.133014 28.852566,27.7510533 C29.2505441,28.3678614 30.4762908,28.1534012 30.4762908,28.1534012 L31.6956888,28.1534012 L34.1274497,26.9388337 L34.5317766,26.9388337 L33.7167398,31 L34.5317766,30.1877804 L36.5534452,25.7167082 L36.9641895,25.3143945 C36.9641895,25.3143945 40.0415968,23.832735 40.2046041,23.6899554 C40.3676114,23.5465601 40.1524074,23.481822 39.8002772,23.2800495 C38.7248062,22.6499381 37.7722255,23.2800495 37.7722255,23.2800495 Z M37,36 L49,36 C49.5522847,36 50,36.4477153 50,37 C50,37.5522847 49.5522847,38 49,38 L37,38 C36.4477153,38 36,37.5522847 36,37 C36,36.4477153 36.4477153,36 37,36 Z M43,40 L49,40 C49.5522847,40 50,40.4477153 50,41 C50,41.5522847 49.5522847,42 49,42 L43,42 C42.4477153,42 42,41.5522847 42,41 C42,40.4477153 42.4477153,40 43,40 Z" id="飞机票号"></path>
                </g>
            </g>
        </g>
    </g>
</svg>