<?xml version="1.0" encoding="UTF-8"?>
<svg width="20px" height="20px" viewBox="0 0 20 20" version="1.1" xmlns="http://www.w3.org/2000/svg" xmlns:xlink="http://www.w3.org/1999/xlink">
    <!-- Generator: Sketch 49.3 (51167) - http://www.bohemiancoding.com/sketch -->
    <title>Shape</title>
    <desc>Created with Sketch.</desc>
    <defs></defs>
    <g id="Page-1" stroke="none" stroke-width="1" fill="none" fill-rule="evenodd">
        <g id="信息录入" transform="translate(-1590.000000, -432.000000)" fill="#FFFFFF" fill-rule="nonzero">
            <g id="填写信息栏" transform="translate(280.000000, 212.000000)">
                <g id="查询" transform="translate(1110.000000, 200.000000)">
                    <g id="Group" transform="translate(81.000000, 17.000000)">
                        <path d="M129.00067,3 C131.761314,3 134.261482,4.11897265 136.070818,5.9280799 C137.880155,7.73779596 139,10.2369161 139,12.9980633 C139,15.7590887 137.880155,18.2582088 136.070818,20.0673161 C134.261482,21.8764233 131.761314,22.995396 129.00067,22.995396 C126.238564,22.995396 123.739736,21.8764233 121.930399,20.0673161 C120.121185,18.2582088 119,15.7589669 119,12.9979415 C119,10.2369161 120.119845,7.73779596 121.930521,5.92795815 C123.739736,4.11897265 126.238564,3 129.00067,3 Z M124.131609,11.9539729 L128.520145,7.56465351 L128.520145,19.5889218 C128.520145,19.8535058 128.73593,20.0679249 129.00067,20.0679249 C129.265287,20.0679249 129.480464,19.8535058 129.480464,19.5889218 L129.480464,7.56465351 L133.869,11.9539729 C134.055925,12.1408742 134.358415,12.1408742 134.547532,11.9539729 C134.734457,11.7656105 134.734457,11.4625503 134.547532,11.2755272 L129.34712,6.07650511 L129.33957,6.06822545 C129.252988,5.98153246 129.132674,5.92734935 129.00067,5.92734935 C128.867326,5.92734935 128.748351,5.98165422 128.661769,6.06822545 L128.652758,6.07650511 L123.453808,11.2755272 C123.266883,11.4625503 123.266883,11.7656105 123.453808,11.9539729 C123.642803,12.1408742 123.944684,12.1408742 124.131609,11.9539729 Z M135.392409,6.6064038 C133.756967,4.97056076 131.496088,3.9594673 129.00067,3.9594673 C126.503912,3.9594673 124.244372,4.97056076 122.608322,6.6064038 C120.972881,8.24236861 119.959589,10.5015001 119.959589,12.9979415 C119.959589,15.4936523 120.972881,17.7536361 122.6082,19.3894792 C124.244251,21.0247134 126.503912,22.0371463 129.000548,22.0371463 C131.495844,22.0371463 133.756845,21.0247134 135.392287,19.3894792 C137.029677,17.7536361 138.040289,15.4936523 138.040289,12.9979415 C138.040289,10.5015001 137.029798,8.24236861 135.392409,6.6064038 Z" id="Shape" transform="translate(129.000000, 12.997698) rotate(-270.000000) translate(-129.000000, -12.997698) "></path>
                    </g>
                </g>
            </g>
        </g>
    </g>
</svg>