<?xml version="1.0" encoding="UTF-8"?>
<svg width="18px" height="14px" viewBox="0 0 18 14" version="1.1" xmlns="http://www.w3.org/2000/svg" xmlns:xlink="http://www.w3.org/1999/xlink">
    <!-- Generator: Sketch 49.3 (51167) - http://www.bohemiancoding.com/sketch -->
    <title>Combined Shape Copy 2</title>
    <desc>Created with Sketch.</desc>
    <defs></defs>
    <g id="Page-1" stroke="none" stroke-width="1" fill="none" fill-rule="evenodd">
        <g id="选座" transform="translate(-1590.000000, -665.000000)" fill="#1F2C5C">
            <g id="个人信息" transform="translate(1570.000000, 645.000000)">
                <path d="M35.9862522,25.8416519 L35.9862522,21.0068455 C35.9862522,20.4507801 36.4297219,20 36.985362,20 C37.5371552,20 37.9844719,20.4499488 37.9844719,21.0068455 L37.9844719,26.6621693 C37.9950007,26.7206263 38.0004941,26.7808537 38.0004941,26.8423779 L38.0004941,26.993629 C38.0004941,27.0539894 37.9949976,27.1132714 37.9844719,27.1709716 L37.9844719,32.9931545 C37.9844719,33.5492199 37.5410022,34 36.985362,34 C36.4335689,34 35.9862522,33.5500512 35.9862522,32.9931545 L35.9862522,27.9943551 L23.4252468,27.9943551 L27.4554381,32.0245464 C27.8359516,32.4050599 27.840384,33.0431169 27.4495761,33.4339248 L27.3426254,33.5408755 C26.9578228,33.9256781 26.3208174,33.9343078 25.9332471,33.5467375 L20.2867343,27.9002247 C20.0260783,27.6395687 19.9418948,27.2580628 20.0403421,26.9179652 C19.9423253,26.5806616 20.0223366,26.20018 20.2867343,25.9357823 L25.9332471,20.2892695 C26.3137605,19.9087561 26.9518176,19.9043237 27.3426254,20.2951315 L27.4495761,20.4020822 C27.8343787,20.7868848 27.8430085,21.4238902 27.4554381,21.8114606 L23.4252468,25.8416519 L35.9862522,25.8416519 Z" id="Combined-Shape-Copy-2" transform="translate(29.000247, 27.000000) scale(-1, 1) translate(-29.000247, -27.000000) "></path>
            </g>
        </g>
    </g>
</svg>