<?xml version="1.0" encoding="UTF-8"?>
<svg width="18px" height="14px" viewBox="0 0 18 14" version="1.1" xmlns="http://www.w3.org/2000/svg" xmlns:xlink="http://www.w3.org/1999/xlink">
    <!-- Generator: Sketch 49.3 (51167) - http://www.bohemiancoding.com/sketch -->
    <title>Combined Shape</title>
    <desc>Created with Sketch.</desc>
    <defs></defs>
    <g id="Page-1" stroke="none" stroke-width="1" fill="none" fill-rule="evenodd">
        <g id="选座" transform="translate(-462.000000, -160.000000)" fill="#1F2C5C">
            <g id="航班信息" transform="translate(0.000000, 140.000000)">
                <path d="M477.985758,25.8416519 L477.985758,21.0068455 C477.985758,20.4507801 478.429228,20 478.984868,20 C479.536661,20 479.983978,20.4499488 479.983978,21.0068455 L479.983978,26.6621693 C479.994507,26.7206263 480,26.7808537 480,26.8423779 L480,26.993629 C480,27.0539894 479.994504,27.1132714 479.983978,27.1709716 L479.983978,32.9931545 C479.983978,33.5492199 479.540508,34 478.984868,34 C478.433075,34 477.985758,33.5500512 477.985758,32.9931545 L477.985758,27.9943551 L465.424753,27.9943551 L469.454944,32.0245464 C469.835457,32.4050599 469.83989,33.0431169 469.449082,33.4339248 L469.342131,33.5408755 C468.957329,33.9256781 468.320323,33.9343078 467.932753,33.5467375 L462.28624,27.9002247 C462.025584,27.6395687 461.941401,27.2580628 462.039848,26.9179652 C461.941831,26.5806616 462.021843,26.20018 462.28624,25.9357823 L467.932753,20.2892695 C468.313266,19.9087561 468.951324,19.9043237 469.342131,20.2951315 L469.449082,20.4020822 C469.833885,20.7868848 469.842514,21.4238902 469.454944,21.8114606 L465.424753,25.8416519 L477.985758,25.8416519 Z" id="Combined-Shape"></path>
            </g>
        </g>
    </g>
</svg>