<?xml version="1.0" encoding="UTF-8"?>
<svg width="20px" height="20px" viewBox="0 0 20 20" version="1.1" xmlns="http://www.w3.org/2000/svg" xmlns:xlink="http://www.w3.org/1999/xlink">
    <!-- Generator: Sketch 47.1 (45422) - http://www.bohemiancoding.com/sketch -->
    <title>黑色电话</title>
    <desc>Created with Sketch.</desc>
    <defs></defs>
    <g id="Page-1" stroke="none" stroke-width="1" fill="none" fill-rule="evenodd" opacity="0.699999988">
        <g id="首页" transform="translate(-1508.000000, -211.000000)" fill="#000000">
            <g id="top">
                <g id="电话弹出" transform="translate(1478.000000, 60.000000)">
                    <path d="M43.9969524,171 C36.2673881,170.998353 30.0016562,164.732627 30.0000003,157.003065 C30.0000001,157.002676 30,157.002287 30,157.001899 L30,152.998101 C30,151.89458 30.8982606,151 31.9979131,151 L34.0020869,151 C35.1055038,151 36,151.886706 36,152.998101 L36,157.001899 C36,158.10542 35.1017394,159 34.0020869,159 L32.1659169,159 C33.0089538,164.02501 36.9749903,167.991046 42,168.834083 L42,166.997913 C42,165.894496 42.8867064,165 43.9981014,165 L48.0018986,165 C49.1054196,165 50,165.898261 50,166.997913 L50,169.002087 C50,170.105504 49.1132936,171 48.0018986,171 L43.9981014,171 C43.9977183,171 43.9973354,171 43.9969524,171 Z" id="黑色电话"></path>
                </g>
            </g>
        </g>
    </g>
</svg>