<?xml version="1.0" encoding="UTF-8"?>
<svg width="50px" height="50px" viewBox="0 0 50 50" version="1.1" xmlns="http://www.w3.org/2000/svg" xmlns:xlink="http://www.w3.org/1999/xlink">
    <!-- Generator: Sketch 47.1 (45422) - http://www.bohemiancoding.com/sketch -->
    <title>租车（选中）</title>
    <desc>Created with Sketch.</desc>
    <defs></defs>
    <g id="Page-1" stroke="none" stroke-width="1" fill="none" fill-rule="evenodd">
        <g id="首页" transform="translate(-60.000000, -335.000000)">
            <g id="租车（选中）" transform="translate(60.000000, 335.000000)">
                <rect id="Rectangle-77" fill="#FFFFFF" x="0" y="0" width="50" height="50"></rect>
                <path d="M32.0018664,24 L45.9928103,24 C48.2059201,24 50,25.7873299 50,27.9931023 L50,34.0068977 C50,36.2122272 48.2057317,38 45.9928103,38 L4.00718972,38 C1.79407995,38 0,36.2126701 0,34.0068977 L0,27.9931023 C0,25.7877728 1.79426827,24 4.00718972,24 L18.0018661,24 C18.0018661,24 18.0018661,24 18.0018661,24 L32.0018657,24 C32.0018661,24 32.0018661,24 32.0018661,24 Z M30.2355817,22 L18.5434704,22 L15.8649566,17.4832458 C15.5931379,17.0248801 14.9792892,16.8609555 14.5013098,17.1296263 C14.019998,17.4001702 13.8588982,17.9922194 14.1340401,18.4561889 L16.2355817,22 L7,22 L8.00878896,14.9384773 C8.5562197,11.1064621 12.1265588,8 16.0027555,8 L33.9972445,8 C37.8647596,8 41.4438648,11.1070538 41.991211,14.9384773 L43,22 L32.5434704,22 L29.8649566,17.4832458 C29.5931379,17.0248801 28.9792892,16.8609555 28.5013098,17.1296263 C28.019998,17.4001702 27.8588982,17.9922194 28.1340401,18.4561889 L30.2355817,22 Z M39,34 C40.6568542,34 42,32.6568542 42,31 C42,29.3431458 40.6568542,28 39,28 C37.3431458,28 36,29.3431458 36,31 C36,32.6568542 37.3431458,34 39,34 Z M11,34 C12.6568542,34 14,32.6568542 14,31 C14,29.3431458 12.6568542,28 11,28 C9.34314575,28 8,29.3431458 8,31 C8,32.6568542 9.34314575,34 11,34 Z M6,40 L14,40 L14,44 C14,46.209139 12.2046438,48 10,48 C7.790861,48 6,46.2046438 6,44 L6,40 Z M36,40 L44,40 L44,44 C44,46.209139 42.2046438,48 40,48 C37.790861,48 36,46.2046438 36,44 L36,40 Z M18,3.0093689 C18,2.45190985 18.4499488,2 19.0068455,2 L30.9931545,2 C31.5492199,2 32,2.44335318 32,3.0093689 L32,4.9906311 C32,5.54809015 31.5500512,6 30.9931545,6 L19.0068455,6 C18.4507801,6 18,5.55664682 18,4.9906311 L18,3.0093689 Z" fill="#1F2C5C"></path>
            </g>
        </g>
    </g>
</svg>