<?xml version="1.0" encoding="UTF-8"?>
<svg width="20px" height="20px" viewBox="0 0 20 20" version="1.1" xmlns="http://www.w3.org/2000/svg" xmlns:xlink="http://www.w3.org/1999/xlink">
    <!-- Generator: Sketch 47.1 (45422) - http://www.bohemiancoding.com/sketch -->
    <title>租车下拉</title>
    <desc>Created with Sketch.</desc>
    <defs></defs>
    <g id="Page-1" stroke="none" stroke-width="1" fill="none" fill-rule="evenodd" opacity="0.5">
        <g id="首页" transform="translate(-356.000000, -388.000000)" fill="#1F2C5C">
            <g id="弹开租车">
                <path d="M368.094233,396 L363.417388,396 L362.345983,394.193298 C362.237255,394.009952 361.991716,393.944382 361.800524,394.051851 C361.607999,394.160068 361.543559,394.396888 361.653616,394.582476 L362.494233,396 L359,396 L359.391168,392.982422 C359.604686,391.335276 361.121375,390 362.774369,390 L369.225631,390 C370.880603,390 372.394836,391.331594 372.608832,392.982422 L373,396 L369.017388,396 L367.945983,394.193298 C367.837255,394.009952 367.591716,393.944382 367.400524,394.051851 C367.207999,394.160068 367.143559,394.396888 367.253616,394.582476 L368.094233,396 Z M356,400 C356,398.343146 357.343312,397 358.994202,397 L373.005798,397 C374.65945,397 376,398.346517 376,400 C376,401.656854 374.656688,403 373.005798,403 L358.994202,403 C357.34055,403 356,401.653483 356,400 Z M371,401 C371.552285,401 372,400.552285 372,400 C372,399.447715 371.552285,399 371,399 C370.447715,399 370,399.447715 370,400 C370,400.552285 370.447715,401 371,401 Z M361,401 C361.552285,401 362,400.552285 362,400 C362,399.447715 361.552285,399 361,399 C360.447715,399 360,399.447715 360,400 C360,400.552285 360.447715,401 361,401 Z M358,404 L362,404 L362,406 C362,407.104569 361.11227,408 360,408 C358.895431,408 358,407.11227 358,406 L358,404 Z M370,404 L374,404 L374,406 C374,407.104569 373.11227,408 372,408 C370.895431,408 370,407.11227 370,406 L370,404 Z M363,388.5 C363,388.223858 363.22788,388 363.491005,388 L368.508995,388 C368.780169,388 369,388.231934 369,388.5 C369,388.776142 368.77212,389 368.508995,389 L363.491005,389 C363.219831,389 363,388.768066 363,388.5 Z" id="租车下拉"></path>
            </g>
        </g>
    </g>
</svg>