<?xml version="1.0" encoding="UTF-8"?>
<svg width="50px" height="51px" viewBox="0 0 50 51" version="1.1" xmlns="http://www.w3.org/2000/svg" xmlns:xlink="http://www.w3.org/1999/xlink">
    <!-- Generator: Sketch 47.1 (45422) - http://www.bohemiancoding.com/sketch -->
    <title>租车（没选中）</title>
    <desc>Created with Sketch.</desc>
    <defs></defs>
    <g id="Page-1" stroke="none" stroke-width="1" fill="none" fill-rule="evenodd" opacity="0.200000003">
        <g id="首页" transform="translate(-61.000000, -337.000000)" fill="#1F2C5C">
            <path d="M107,349 L105,349 L105,351 L107,351 L107,353 C107,353.552285 107.447715,354 108,354 L110,354 C110.552285,354 111,353.552285 111,353 L111,347 C111,346.447715 110.552285,346 110,346 L108,346 C107.447715,346 107,346.447715 107,347 L107,349 Z M65,349 L67,349 L67,351 L65,351 L65,353 C65,353.552285 64.5522847,354 64,354 L62,354 C61.4477153,354 61,353.552285 61,353 L61,347 C61,346.447715 61.4477153,346 62,346 L62,346 L64,346 C64.5522847,346 65,346.447715 65,347 L65,349 Z M69,380 L77,380 L77,384 C77,386.209139 75.2046438,388 73,388 C70.790861,388 69,386.204644 69,384 L69,380 Z M95,380 L103,380 L103,384 C103,386.209139 101.204644,388 99,388 C96.790861,388 95,386.204644 95,384 L95,380 Z M71,337 L101,337 L101,337 C103.209139,337 105,338.790861 105,341 L105,377 C105,377.552285 104.552285,378 104,378 L68,378 C67.4477153,378 67,377.552285 67,377 L67,341 C67,338.790861 68.790861,337 71,337 L71,337 Z M72,341 C71.4477153,341 71,341.447715 71,342 L71,346 C71,346.552285 71.4477153,347 72,347 L100,347 C100.552285,347 101,346.552285 101,346 L101,342 C101,341.447715 100.552285,341 100,341 L72,341 Z M72,351 C71.4477153,351 71,351.447715 71,352 L71,364 C71,364.552285 71.4477153,365 72,365 L84,365 C84.5522847,365 85,364.552285 85,364 L85,352 C85,351.447715 84.5522847,351 84,351 L72,351 Z M88,351 C87.4477153,351 87,351.447715 87,352 L87,364 C87,364.552285 87.4477153,365 88,365 L100,365 C100.552285,365 101,364.552285 101,364 L101,352 C101,351.447715 100.552285,351 100,351 L88,351 Z M80,368 C79.4477153,368 79,368.447715 79,369 C79,369.552285 79.4477153,370 80,370 L92,370 C92.5522847,370 93,369.552285 93,369 L93,369 C93,368.447715 92.5522847,368 92,368 L80,368 Z M80,372 C79.4477153,372 79,372.447715 79,373 C79,373.552285 79.4477153,374 80,374 L92,374 C92.5522847,374 93,373.552285 93,373 C93,372.447715 92.5522847,372 92,372 L80,372 Z M74,374 C75.6568542,374 77,372.656854 77,371 C77,369.343146 75.6568542,368 74,368 C72.3431458,368 71,369.343146 71,371 C71,372.656854 72.3431458,374 74,374 Z M98,374 C99.6568542,374 101,372.656854 101,371 C101,369.343146 99.6568542,368 98,368 C96.3431458,368 95,369.343146 95,371 C95,372.656854 96.3431458,374 98,374 Z M76,343 L96,343 C96.5522847,343 97,343.447715 97,344 C97,344.552285 96.5522847,345 96,345 L76,345 C75.4477153,345 75,344.552285 75,344 C75,343.447715 75.4477153,343 76,343 Z" id="租车（没选中）"></path>
        </g>
    </g>
</svg>