<?xml version="1.0" encoding="UTF-8"?>
<svg width="30px" height="24px" viewBox="0 0 30 24" version="1.1" xmlns="http://www.w3.org/2000/svg" xmlns:xlink="http://www.w3.org/1999/xlink">
    <!-- Generator: Sketch 47.1 (45422) - http://www.bohemiancoding.com/sketch -->
    <title>小孩（下拉）</title>
    <desc>Created with Sketch.</desc>
    <defs></defs>
    <g id="Page-1" stroke="none" stroke-width="1" fill="none" fill-rule="evenodd" opacity="0.699999988">
        <g id="首页" transform="translate(-1310.000000, -588.000000)" fill="#000000">
            <g id="弹开订票">
                <g id="选择人数" transform="translate(1270.000000, 435.000000)">
                    <g id="Child" transform="translate(40.000000, 153.000000)">
                        <path d="M7.1340121,6.53405707 C7.82257861,2.81589052 11.0824461,0 15,0 C19.418278,0 23,3.581722 23,8 C23,12.418278 19.418278,16 15,16 C10.581722,16 7,12.418278 7,8 C7,7.49927593 7.04600264,7.00929635 7.1340121,6.53405707 C8.03422957,6.83625217 8.99799211,7 10,7 C13.2012495,7 16.0121298,5.3286311 17.6076238,2.81091053 C17.3842835,2.51462151 17.1810652,2.20230999 17,1.87600717 C15.6352711,4.33542471 13.0120267,6 10,6 C9.08190432,6 8.19993006,5.84534581 7.37870773,5.56066794 C7.27753656,5.87702274 7.1955168,6.20194013 7.13401224,6.53405635 L7.1340121,6.53405707 Z M17,21.75 L17,21.9906311 C17,22.5480902 16.5566468,23 15.9906311,23 L14.0093689,23 C13.4519098,23 13,22.5566468 13,21.9906311 L13,21.75 L10,24 L10,18 L13,20.25 L13,20.0093689 C13,19.4519098 13.4433532,19 14.0093689,19 L15.9906311,19 C16.5480902,19 17,19.4433532 17,20.0093689 L17,20.25 L20,18 L20,24 L17,21.75 Z M6,19.1138777 L6,24 L24,24 L24,19.1138777 C27.6433401,20.1303362 30,21.7486601 30,23.5714286 C30,23.7156309 29.9852505,23.8585536 29.9562812,24 L0.0437188079,24 C0.0147495301,23.8585536 0,23.7156309 0,23.5714286 C0,21.7486601 2.35665989,20.1303362 6,19.1138777 Z M17.2879587,2.35471402 C18.4936672,4.20930118 20.4471779,5.53297599 22.7210761,5.8983237 C22.8128296,6.23620562 22.8829963,6.5829741 22.9300038,6.93705672 C20.540919,6.65404896 18.438664,5.43522116 17,3.65733434 C17.2182518,3.38762093 17.4212315,3.10504119 17.6076238,2.81091053 L17.6076238,2.81091053 C17.4959537,2.66276602 17.389314,2.51061588 17.2879587,2.35471402 Z M19,10 C19,12.209139 17.209139,14 15,14 C12.790861,14 11,12.209139 11,10 L19,10 Z" id="小孩（下拉）"></path>
                    </g>
                </g>
            </g>
        </g>
    </g>
</svg>