<?xml version="1.0" encoding="UTF-8"?>
<svg width="20px" height="20px" viewBox="0 0 20 20" version="1.1" xmlns="http://www.w3.org/2000/svg" xmlns:xlink="http://www.w3.org/1999/xlink">
    <!-- Generator: Sketch 47.1 (45422) - http://www.bohemiancoding.com/sketch -->
    <title>飞机（搜索结果）</title>
    <desc>Created with Sketch.</desc>
    <defs></defs>
    <g id="Page-1" stroke="none" stroke-width="1" fill="none" fill-rule="evenodd" opacity="0.5">
        <g id="首页" transform="translate(-360.000000, -520.000000)" fill="#1F2C5C">
            <g id="弹开订票">
                <g id="点击弹出目的地" transform="translate(340.000000, 435.000000)">
                    <path d="M35.982408,91.5834637 L37.5897127,101.317127 C37.9161889,103.294231 37.2037826,103.59714 35.9986575,101.994593 L31.5230782,96.0430734 L28.2483982,99.3179589 L28.3943558,104.35091 C28.4175487,105.150657 28.1455999,105.222295 27.7867711,104.505056 L25.3551043,99.6445596 L20.4949131,97.2127402 C19.7777192,96.8538888 19.8493525,96.5819229 20.6490488,96.6051174 L25.6816844,96.7510841 L28.8974084,93.5351583 L23.002615,89.0078137 C21.4125786,87.7866272 21.7234774,87.0634339 23.7027951,87.3934782 L33.41871,89.0135729 L36.899733,85.5323314 C37.6094916,84.8225283 38.7608853,84.823176 39.4682215,85.5305566 C40.1769999,86.2393795 40.1781106,87.3874977 39.4664468,88.0992062 L35.982408,91.5834637 Z M25.6096546,99.3899933 L25.4823795,99.5172764 L25.6096546,99.3899933 Z" id="飞机（搜索结果）"></path>
                </g>
            </g>
        </g>
    </g>
</svg>