<?xml version="1.0" encoding="UTF-8"?>
<svg width="30px" height="24px" viewBox="0 0 30 24" version="1.1" xmlns="http://www.w3.org/2000/svg" xmlns:xlink="http://www.w3.org/1999/xlink">
    <!-- Generator: Sketch 47.1 (45422) - http://www.bohemiancoding.com/sketch -->
    <title>目的地</title>
    <desc>Created with Sketch.</desc>
    <defs>
        <linearGradient x1="0%" y1="0%" x2="100%" y2="100%" id="linearGradient-1">
            <stop stop-color="#42958A" offset="0%"></stop>
            <stop stop-color="#1F2C5C" offset="100%"></stop>
        </linearGradient>
    </defs>
    <g id="Page-1" stroke="none" stroke-width="1" fill="none" fill-rule="evenodd">
        <g id="首页" transform="translate(-710.000000, -383.000000)" fill="url(#linearGradient-1)">
            <g id="弹开订票">
                <g id="目的地" transform="translate(690.000000, 365.000000)">
                    <path d="M20,42 C20,40.8954305 20.8954305,40 22,40 C22.0419915,40 22.0836807,40.0012941 22.12503,40.0038446 C22.5677342,38.276667 24.1347763,37 26,37 C27.612209,37 29.0016455,37.9538026 29.6348106,39.3279088 C30.0443185,39.118269 30.5083476,39 31,39 C32.6568542,39 34,40.3431458 34,42 L20,42 Z M31.0491081,28.7597625 L33.1212488,20.7018142 C34.0411579,17.1245576 35.7425294,17.1005793 36.9132657,20.6238722 L40.4752368,31.343509 L47.8222622,33.3573634 C49.3741575,33.7827453 50.3070067,35.3700689 49.9076577,36.8958015 C49.5074944,38.4246451 47.9283759,39.3200924 46.3731429,38.8937956 L24.6913031,32.9507008 C23.6596488,32.6679194 22.9065704,31.5867284 23.0093935,30.5343805 L23.8623584,21.8046695 C23.9651197,20.7529539 24.3952594,20.6876076 24.8265687,21.6665822 L27.5261912,27.7941143 L31.0491081,28.7597625 Z"></path>
                </g>
            </g>
        </g>
    </g>
</svg>