<?xml version="1.0" encoding="UTF-8"?>
<svg width="30px" height="24px" viewBox="0 0 30 24" version="1.1" xmlns="http://www.w3.org/2000/svg" xmlns:xlink="http://www.w3.org/1999/xlink">
    <!-- Generator: Sketch 47.1 (45422) - http://www.bohemiancoding.com/sketch -->
    <title>航班号查询</title>
    <desc>Created with Sketch.</desc>
    <defs>
        <linearGradient x1="0%" y1="0%" x2="100%" y2="100%" id="linearGradient-1">
            <stop stop-color="#42958A" offset="0%"></stop>
            <stop stop-color="#1F2C5C" offset="100%"></stop>
        </linearGradient>
    </defs>
    <g id="Page-1" stroke="none" stroke-width="1" fill="none" fill-rule="evenodd">
        <g id="首页" transform="translate(-360.000000, -383.000000)" fill="url(#linearGradient-1)">
            <g id="弹开航班查询-航班号">
                <g id="航班号" transform="translate(340.000000, 365.000000)">
                    <path d="M21.0003473,18.0000001 C21.0004631,18 21.0005789,18 21.0006946,18 L42.9993054,18 C43.2742279,18 43.5232565,18.1098354 43.7041226,18.2886888 C43.888068,18.473175 44,18.7208727 44,18.990778 L44,23.009222 C44,23.5564136 43.5561352,24 43,24 C42.4477153,24 42,23.5490248 42,23.009222 L42,20 L22,20 L22,30.9931545 C22,31.5492199 21.5561352,32 21,32 C20.4477153,32 20,31.5500512 20,30.9931545 L20,19.0068455 C20,19.0057037 20.0000019,19.0045624 20.0000056,19.0034215 C20.0000019,19.0022832 20,19.0011418 20,19 C20,18.7239732 20.1117737,18.4740669 20.2926605,18.2931205 C20.4739846,18.111772 20.7230734,18 21,18 C21.0001158,18 21.0002316,18 21.0003473,18.0000001 Z M24,27.9940603 C24,26.8927712 24.8949789,26 25.9970047,26 L48.0029953,26 C49.1059106,26 50,26.8945138 50,27.9940603 L50,40.0059397 C50,41.1072288 49.1050211,42 48.0029953,42 L25.9970047,42 C24.8940894,42 24,41.1054862 24,40.0059397 L24,27.9940603 Z" id="航班号查询"></path>
                </g>
            </g>
        </g>
    </g>
</svg>