<?xml version="1.0" encoding="UTF-8"?>
<svg width="50px" height="50px" viewBox="0 0 50 50" version="1.1" xmlns="http://www.w3.org/2000/svg" xmlns:xlink="http://www.w3.org/1999/xlink">
    <!-- Generator: Sketch 47.1 (45422) - http://www.bohemiancoding.com/sketch -->
    <title>酒店（选中）</title>
    <desc>Created with Sketch.</desc>
    <defs></defs>
    <g id="Page-1" stroke="none" stroke-width="1" fill="none" fill-rule="evenodd">
        <g id="首页" transform="translate(-60.000000, -235.000000)">
            <g id="酒店（选中）" transform="translate(60.000000, 235.000000)">
                <rect id="Rectangle-78-Copy" fill="#FFFFFF" x="0" y="0" width="50" height="50"></rect>
                <path d="M0,9.9999204 C0,8.89539486 0.887729645,8 2,8 C3.1045695,8 4,8.89194115 4,9.9999204 L4,40.0000796 C4,41.1046051 3.11227036,42 2,42 C0.8954305,42 0,41.1080589 0,40.0000796 L0,9.9999204 Z M12,27 C9.790861,27 8,25.209139 8,23 C8,20.790861 9.790861,19 12,19 C14.209139,19 16,20.790861 16,23 C16,25.209139 14.209139,27 12,27 Z M18,20.9981014 C18,19.8945804 18.8923127,19 19.9965066,19 C19.9965066,19 27.1890641,19 33.9093066,19 C42.1067907,19 41.9999649,27 41.9999649,27 L18,27 L18,20.9981014 Z M46,27.9940603 C46,26.8927712 46.8877296,26 48,26 C49.1045695,26 50,26.8945138 50,27.9940603 L50,40.0059397 C50,41.1072288 49.1122704,42 48,42 C46.8954305,42 46,41.1054862 46,40.0059397 L46,27.9940603 Z M6,31 C6,29.8954305 6.90185079,29 8.00285922,29 L41.9971408,29 C43.1032894,29 44,29.8877296 44,31 C44,32.1045695 43.0981492,33 41.9971408,33 L8.00285922,33 C6.89671062,33 6,32.1122704 6,31 Z M4,38 L4,34 L46,34 L46,38 L4,38 Z" id="酒店（选中）-copy" fill="#1F2C5C"></path>
            </g>
        </g>
    </g>
</svg>