<?xml version="1.0" encoding="UTF-8"?>
<svg width="30px" height="24px" viewBox="0 0 30 24" version="1.1" xmlns="http://www.w3.org/2000/svg" xmlns:xlink="http://www.w3.org/1999/xlink">
    <!-- Generator: Sketch 49.3 (51167) - http://www.bohemiancoding.com/sketch -->
    <title>性别</title>
    <desc>Created with Sketch.</desc>
    <defs>
        <linearGradient x1="0%" y1="0%" x2="100%" y2="100%" id="linearGradient-1">
            <stop stop-color="#00908C" offset="0%"></stop>
            <stop stop-color="#1F2C5C" offset="100%"></stop>
        </linearGradient>
    </defs>
    <g id="Page-1" stroke="none" stroke-width="1" fill="none" fill-rule="evenodd">
        <g id="信息录入" transform="translate(-429.000000, -230.000000)" fill="url(#linearGradient-1)">
            <path d="M432,238.41715 L430.872159,239.544991 C430.485236,239.931914 429.857713,239.931717 429.464466,239.53847 C429.073942,239.147946 429.076247,238.512476 429.457945,238.130778 L432.273255,235.315467 C432.292471,235.295108 432.312534,235.27556 432.333392,235.256878 C432.625935,234.99044 433.039638,234.930772 433.389253,235.080187 C433.530934,235.139259 433.65593,235.229904 433.755335,235.344058 L436.542055,238.130778 C436.928978,238.517701 436.928781,239.145223 436.535534,239.53847 C436.14501,239.928995 435.50954,239.926689 435.127841,239.544991 L434,238.41715 L434,241.000007 C434,241.043003 433.997326,241.085366 433.992132,241.126937 C435.72135,241.568238 437,243.136265 437,245.002936 C437,247.212075 435.209139,249.002936 433,249.002936 C430.790861,249.002936 429,247.212075 429,245.002936 C429,243.136337 430.278551,241.568359 432.007667,241.126989 C432.002607,241.085494 432,241.043121 432,241.000007 L432,238.41715 Z M454.007868,242.875999 C452.27865,242.434699 451,240.866672 451,239 C451,236.790861 452.790861,235 455,235 C457.209139,235 459,236.790861 459,239 C459,240.866599 457.721449,242.434577 455.992333,242.875948 C455.997393,242.917443 456,242.959816 456,243.002929 L456,244 L458.00297,244 C458.553614,244 459,244.443865 459,245 C459,245.552285 458.546964,246 458.00297,246 L456,246 L456,247.997071 C456,248.550973 455.556135,249 455,249 C454.447715,249 454,248.562119 454,247.997071 L454,246 L451.99703,246 C451.446386,246 451,245.556135 451,245 C451,244.447715 451.453036,244 451.99703,244 L454,244 L454,243.002929 C454,242.959934 454.002674,242.91757 454.007868,242.875999 Z M455,241 C456.104569,241 457,240.104569 457,239 C457,237.895431 456.104569,237 455,237 C453.895431,237 453,237.895431 453,239 C453,240.104569 453.895431,241 455,241 Z M444,230 C444.552285,230 445,230.447715 445,231 L445,253 C445,253.552285 444.552285,254 444,254 C443.447715,254 443,253.552285 443,253 L443,231 C443,230.447715 443.447715,230 444,230 Z M433,247.002936 C434.104569,247.002936 435,246.107506 435,245.002936 C435,243.898367 434.104569,243.002936 433,243.002936 C431.895431,243.002936 431,243.898367 431,245.002936 C431,246.107506 431.895431,247.002936 433,247.002936 Z" id="性别"></path>
        </g>
    </g>
</svg>