<?xml version="1.0" encoding="UTF-8"?>
<svg width="30px" height="24px" viewBox="0 0 30 24" version="1.1" xmlns="http://www.w3.org/2000/svg" xmlns:xlink="http://www.w3.org/1999/xlink">
    <!-- Generator: Sketch 49.3 (51167) - http://www.bohemiancoding.com/sketch -->
    <title>区号</title>
    <desc>Created with Sketch.</desc>
    <defs>
        <linearGradient x1="0%" y1="0%" x2="100%" y2="100%" id="linearGradient-1">
            <stop stop-color="#00908C" offset="0%"></stop>
            <stop stop-color="#1F2C5C" offset="100%"></stop>
        </linearGradient>
    </defs>
    <g id="Page-1" stroke="none" stroke-width="1" fill="none" fill-rule="evenodd">
        <g id="信息录入" transform="translate(-565.000000, -230.000000)">
            <g id="区号" transform="translate(565.000000, 230.000000)">
                <rect id="Rectangle-12" fill="#FFFFFF" x="0" y="0" width="30" height="24" rx="1"></rect>
                <path d="M20.218548,14.3887588 C20.3144731,13.597377 20.3864169,12.8059953 20.3864169,11.9906323 C20.3864169,11.1752693 20.3144731,10.3838876 20.218548,9.59250587 L24.2713817,9.59250587 C24.4632319,10.3599064 24.5831382,11.1632787 24.5831382,11.9906323 C24.5831382,12.817986 24.4632318,13.6213583 24.2713817,14.3887588 L20.218548,14.3887588 Z M18.0962061,21.0555504 C18.815644,19.7245902 19.3672131,18.2857143 19.7509134,16.7868853 L23.2881499,16.7868853 C22.12646,18.7872537 20.2834342,20.3025359 18.0962061,21.0555504 Z M17.7964403,14.3887588 L12.1848244,14.3887588 C12.064918,13.597377 11.9929742,12.8059953 11.9929742,11.9906323 C11.9929742,11.1752693 12.064918,10.371897 12.1848244,9.59250587 L17.7964403,9.59250587 C17.904356,10.371897 17.9882904,11.1752693 17.9882904,11.9906323 C17.9882904,12.8059953 17.904356,13.597377 17.7964403,14.3887588 Z M14.9906323,21.5351757 C13.9954099,20.0962998 13.1920375,18.5015457 12.7004216,16.7868853 L17.2808431,16.7868853 C16.7892272,18.5015457 15.9858548,20.0962998 14.9906323,21.5351757 Z M10.1943794,7.19437939 L6.69311477,7.19437939 C7.84284347,5.18860397 9.68453276,3.67091557 11.8730679,2.9257143 C11.15363,4.25667448 10.6140515,5.69555036 10.1943794,7.19437939 Z M6.69311477,16.7868853 L10.1943794,16.7868853 C10.6140515,18.2857143 11.15363,19.7245902 11.8730679,21.0555504 C9.68912293,20.3021376 7.85002638,18.7865858 6.69311477,16.7868853 Z M5.70988291,14.3887588 C5.51803279,13.6213583 5.39812648,12.817986 5.39812648,11.9906323 C5.39812648,11.1632787 5.51803281,10.3599063 5.70988291,9.59250587 L9.76271663,9.59250587 C9.66679158,10.3838876 9.59484778,11.1752693 9.59484778,11.9906323 C9.59484778,12.8059953 9.66679158,13.597377 9.76271663,14.3887588 L5.70988291,14.3887588 Z M14.9906323,2.43409838 C15.9858548,3.87297426 16.7892272,5.47971898 17.2808431,7.19437939 L12.7004216,7.19437939 C13.1920375,5.47971898 13.9954099,3.87297423 14.9906323,2.43409838 Z M23.2881499,7.19437939 L19.7509134,7.19437939 C19.3756324,5.70928895 18.8199288,4.27573463 18.0962061,2.9257143 C20.3024825,3.68112413 22.1370492,5.20393444 23.2881499,7.19437939 Z M14.9906323,1.19810485e-15 C8.35981265,1.19810485e-15 3,5.39578454 3,11.9906323 C3,18.6128757 8.36838895,23.9812647 14.9906323,23.9812647 C18.1707457,23.9812647 21.22061,22.7179695 23.4692898,20.4692898 C25.7179695,18.22061 26.9812647,15.1707457 26.9812647,11.9906323 C26.9812647,5.36838895 21.6128757,3.99368282e-16 14.9906323,1.19810485e-15 Z" id="Shape" fill="url(#linearGradient-1)" fill-rule="nonzero"></path>
            </g>
        </g>
    </g>
</svg>