<?xml version="1.0" encoding="UTF-8"?>
<svg width="30px" height="24px" viewBox="0 0 30 24" version="1.1" xmlns="http://www.w3.org/2000/svg" xmlns:xlink="http://www.w3.org/1999/xlink">
    <!-- Generator: Sketch 47.1 (45422) - http://www.bohemiancoding.com/sketch -->
    <title>婴儿（下拉）</title>
    <desc>Created with Sketch.</desc>
    <defs></defs>
    <g id="Page-1" stroke="none" stroke-width="1" fill="none" fill-rule="evenodd" opacity="0.699999988">
        <g id="首页" transform="translate(-1310.000000, -658.000000)" fill="#000000">
            <g id="弹开订票">
                <g id="选择人数" transform="translate(1270.000000, 435.000000)">
                    <g id="Infant" transform="translate(40.000000, 223.000000)">
                        <path d="M20.9983165,15.7989899 L20.1952651,14.9959386 C19.7597037,14.5603772 19.0384959,14.5561167 18.5962962,14.9983165 C18.1510135,15.4435991 18.1530319,16.156399 18.5939183,16.5972854 L19.2079254,17.2112925 C18.402611,17.2559033 17.6101503,17.5858092 16.9949494,18.2010101 C15.6683502,19.5276093 15.6683502,21.6784515 16.9949494,23.0050506 C18.3215485,24.3316498 20.4723907,24.3316498 21.7989899,23.0050506 C22.4141908,22.3898497 22.7440967,21.597389 22.7887075,20.7920746 L23.4027146,21.4060817 C23.838276,21.8416431 24.5594838,21.8459035 25.0016835,21.4037038 C25.4469662,20.9584211 25.4449479,20.2456213 25.0040614,19.8047349 L24.20101,19.0016834 C23.7588104,18.5594838 23.9380473,17.6632996 24.6013468,17 C24.8091387,16.7922081 25.0397854,16.6319213 25.2721701,16.5233628 C26.5096301,17.04965 27.9958481,16.8081924 29.0050506,15.7989899 C30.3316498,14.4723907 30.3316498,12.3215485 29.0050506,10.9949494 C27.6784515,9.66835021 25.5276093,9.66835021 24.2010101,10.9949494 C23.1918076,12.0041519 22.95035,13.4903699 23.4766372,14.7278299 C23.3680787,14.9602146 23.2077919,15.1908613 23,15.3986532 C22.3367004,16.0619527 21.4405162,16.2411896 20.9983165,15.7989899 Z M9.09930962,0.0749090321 C9.28245421,0.616480307 9.31306919,1.21626153 9.15400306,1.8099044 C8.72517763,3.41030271 7.08016676,4.36005018 5.47976845,3.93122474 C5.2130354,3.85975384 4.93886692,4.01804508 4.86739601,4.28477814 C4.79592511,4.55151119 4.95421635,4.82567966 5.22094941,4.89715057 C7.35481382,5.46891782 9.54816164,4.20258786 10.1199289,2.06872345 C10.2796243,1.47273211 10.2959311,0.87210051 10.1899959,0.303455848 C13.5436373,1.25586688 16,4.34107631 16,8 C16,12.418278 12.418278,16 8,16 C3.581722,16 0,12.418278 0,8 C0,3.581722 3.581722,0 8,0 C8.3729474,0 8.73993428,0.0255200173 9.09930962,0.0749090321 Z M20.9983165,22.2043772 C20.113917,23.0887767 18.6800222,23.0887767 17.7956228,22.2043772 C16.9112233,21.3199778 16.9112233,19.886083 17.7956228,19.0016835 C18.6800222,18.1172841 20.113917,18.1172841 20.9983165,19.0016835 C21.8827159,19.886083 21.8827159,21.3199778 20.9983165,22.2043772 Z M12,10 L4,10 C4,12.209139 5.790861,14 8,14 C10.209139,14 12,12.209139 12,10 Z" id="婴儿（下拉）"></path>
                    </g>
                </g>
            </g>
        </g>
    </g>
</svg>