<?xml version="1.0" encoding="UTF-8"?>
<svg width="30px" height="30px" viewBox="0 0 30 30" version="1.1" xmlns="http://www.w3.org/2000/svg" xmlns:xlink="http://www.w3.org/1999/xlink">
    <!-- Generator: Sketch 47.1 (45422) - http://www.bohemiancoding.com/sketch -->
    <title>中国</title>
    <desc>Created with Sketch.</desc>
    <defs>
        <circle id="path-1" cx="15" cy="15" r="15"></circle>
    </defs>
    <g id="Page-1" stroke="none" stroke-width="1" fill="none" fill-rule="evenodd">
        <g id="首页" transform="translate(-1663.000000, -183.000000)">
            <g id="top">
                <g id="国旗弹出" transform="translate(1633.000000, 60.000000)">
                    <g id="中国" transform="translate(30.000000, 123.000000)">
                        <mask id="mask-2" fill="white">
                            <use xlink:href="#path-1"></use>
                        </mask>
                        <g id="Mask">
                            <use fill="#D8D8D8" fill-rule="evenodd" xlink:href="#path-1"></use>
                            <circle stroke="#F2F2F2" stroke-width="2" cx="15" cy="15" r="14"></circle>
                        </g>
                        <path d="M2.38404962,11.8758992 C4.10794835,4.90743848 11.1537509,0.659499241 18.1200395,2.38379291 C25.0881711,4.10742835 29.336242,11.1521119 27.6124749,18.1194537 C25.8883787,25.086598 18.8434977,29.3364461 11.8758927,27.6117575 C4.90920911,25.8881878 0.658702785,18.8429777 2.38404962,11.8758992" id="Fill-1" fill="#E62E15" mask="url(#mask-2)"></path>
                        <path d="M9.18359595,8.92234532 L8.29044658,6.17292759 L7.39538835,8.92234532 L4.50320101,8.92234532 L6.84339848,10.6236668 L5.95038076,13.3751251 L8.29044658,11.6738035 L10.6284719,13.3751251 L9.73552,10.6236668 L12.0755858,8.92234532 L9.18359595,8.92234532 Z M15.827682,4.73614785 L15.2199403,5.47000608 L14.3371251,5.11864405 L14.8436972,5.92168203 L14.2358896,6.65461873 L15.1578035,6.41897316 L15.6664162,7.22405165 L15.7283554,6.27310987 L16.6504668,6.03851747 L15.7677175,5.68708962 L15.827682,4.73614785 Z M17.7935453,9.09592 L17.9380922,10.0365276 L18.374563,9.18794025 L19.3129985,9.33999089 L18.6412111,8.66603139 L19.0752466,7.81836557 L18.2256061,8.24943899 L17.5558592,7.57554532 L17.7006694,8.51503392 L16.8530035,8.94512 L17.7935453,9.09592 Z M19.344001,12.5823554 L18.3910846,12.5813681 L18.0996213,11.6759757 L17.8039453,12.5823554 L16.8530035,12.5813681 L17.6219453,13.1404668 L17.326401,14.0459909 L18.0974491,13.4868922 L18.8665225,14.0470441 L18.5728871,13.1404668 L19.344001,12.5823554 Z M15.8214289,14.5802086 L15.2136213,15.3143301 L14.328963,14.9607301 L14.8353377,15.7660061 L14.2275959,16.497758 L15.1516162,16.2630339 L15.660163,17.0683099 L15.7199959,16.1174339 L16.644082,15.8826441 L15.7594238,15.5302947 L15.8214289,14.5802086 Z" id="Fill-3" fill="#FED600" mask="url(#mask-2)"></path>
                    </g>
                </g>
            </g>
        </g>
    </g>
</svg>