<svg id="图层_1" data-name="图层 1" xmlns="http://www.w3.org/2000/svg" xmlns:xlink="http://www.w3.org/1999/xlink" viewBox="0 0 140 52.79"><defs><style>.cls-1,.cls-2,.cls-3{fill:#fff;}.cls-1{clip-rule:evenodd;}.cls-2{fill-rule:evenodd;}.cls-4{clip-path:url(#clip-path);}.cls-5{clip-path:url(#clip-path-2);}.cls-6{clip-path:url(#clip-path-3);}</style><clipPath id="clip-path" transform="translate(0 -0.11)"><path class="cls-1" d="M66,27.91a9.9,9.9,0,0,0,4.15.92h0c5.16,0,9.13-3.52,9.28-8.61h0s0-5.78-6.35-5.78c-4.49,0-5.58,4.5-5.58,4.5s3.81-5.06,6.9-.31a5.4,5.4,0,0,1,.78,3c0,.26,0,.48,0,.72A4.81,4.81,0,0,1,71,26.88c-3.28.24-6.61-.68-7.37-5.09a10.2,10.2,0,0,1,2-7.64,17.72,17.72,0,0,1,4.44-3.81A35.45,35.45,0,0,1,73.77,8.5h0A15.57,15.57,0,0,1,76,7.86a12.91,12.91,0,0,1,1.24.8l.2.15a13.11,13.11,0,0,1,1.07.91l.17.18a12,12,0,0,1,1.58,2c.09.14.2.27.29.41s.28.53.41.8.3.61.42.92.19.49.27.75.23.78.32,1.18c0,.21.1.42.13.63a12,12,0,0,1,.17,1.94,12.2,12.2,0,0,1-24.39,0,12.44,12.44,0,0,1,.19-2.1c.05-.28.14-.54.21-.81s.19-.78.32-1.15.29-.68.45-1,.23-.52.36-.76c.22-.4.48-.77.73-1.13.11-.16.21-.31.33-.47a12.73,12.73,0,0,1,1-1.15l.24-.24a11.88,11.88,0,0,1,1.34-1.08l.13-.09a12.45,12.45,0,0,1,1.6-.92l0,0a12.58,12.58,0,0,1,1.8-.68h0a3.45,3.45,0,0,0,.92-.25c.09,0,.18-.06.27-.08a5.57,5.57,0,0,0-.51-.25A18.34,18.34,0,0,0,63.53,5l-.38-.1-.44-.12q-1.63-.4-3.53-.77l-.19,0h-.1C43.5,1,17.43.17,17.38.17l2.55.95c-.74-.13-.46-.09-.32,0C31.32,10.7,50.5,5.75,62.33,7.75l-.1.08a13.19,13.19,0,0,0-1.16,1c-.21.19-.4.4-.59.61s-.46.5-.67.76-.34.43-.5.65-.47.71-.69,1.08c-.09.16-.19.3-.27.46A13.15,13.15,0,0,0,57.62,14c-.07.19-.12.39-.19.59a12.56,12.56,0,0,0-.34,1.34c0,.2-.08.39-.11.59a13,13,0,0,0-.16,2c0,7.32,5.94,15.13,13.25,15.13S83.34,25.8,83.34,18.48a13.23,13.23,0,0,0-.15-1.91c0-.21-.08-.42-.13-.63a11.5,11.5,0,0,0-.28-1.18c-.08-.25-.15-.5-.24-.75s-.25-.61-.38-.92-.24-.54-.38-.81-.19-.31-.28-.47a13.82,13.82,0,0,0-1.44-2l-.15-.17c-.32-.34-.65-.67-1-1l-.19-.16a13.52,13.52,0,0,0-1.15-.9h0c11.7-1.74,32.87,2.64,44.93-6.87.09-.12-.23-.17-.75.06h0C92.86,1.76,79.3,4.22,75.84,5L75,5.22h0c-.7.17-.75.21-1.08.31a31.84,31.84,0,0,0-3.67,1.4c-.9.4-3.1,1.75-3.1,1.75C63.29,11.29,60.82,15,61,20.22a8.53,8.53,0,0,0,4.6,7.47"/></clipPath><clipPath id="clip-path-2" transform="translate(0 -0.11)"><path class="cls-1" d="M66,27.91a9.9,9.9,0,0,0,4.15.92h0c5.16,0,9.13-3.52,9.28-8.61h0s0-5.78-6.35-5.78c-4.49,0-5.58,4.5-5.58,4.5s4-4,7.55-.69c.48.75.13,2.11.13,3.35,0,.26,0,.48,0,.72A4.81,4.81,0,0,1,71,26.88c-3.28.24-6.61-.68-7.37-5.09a10.2,10.2,0,0,1,2-7.64,17.72,17.72,0,0,1,4.44-3.81A35.45,35.45,0,0,1,73.77,8.5h0A15.57,15.57,0,0,1,76,7.86a12.91,12.91,0,0,1,1.24.8l.2.15a13.11,13.11,0,0,1,1.07.91l.17.18a12,12,0,0,1,1.58,2c.09.14.2.27.29.41s.28.53.41.8.3.61.42.92.19.49.27.75.23.78.32,1.18c0,.21.1.42.13.63a12,12,0,0,1,.17,1.94,12.2,12.2,0,0,1-24.39,0,12.44,12.44,0,0,1,.19-2.1c.05-.28.14-.54.21-.81s.19-.78.32-1.15.29-.68.45-1,.23-.52.36-.76c.22-.4.48-.77.73-1.13.11-.16.21-.31.33-.47a12.73,12.73,0,0,1,1-1.15l.24-.24a11.88,11.88,0,0,1,1.34-1.08l.13-.09a12.45,12.45,0,0,1,1.6-.92l0,0a12.58,12.58,0,0,1,1.8-.68h0a2,2,0,0,0,.92-.25c.09,0,.18-.06.27-.08a5.57,5.57,0,0,0-.51-.25A18.34,18.34,0,0,0,63.53,5l-.38-.1-.44-.12q-1.63-.4-3.53-.77l-.19,0h-.1C43.5,1,20.77,1.48,18.59.83L17.93.65c-.74,0,.62-.18.76-.06C30.4,10.15,50.5,5.75,62.33,7.75l-.1.08a13.19,13.19,0,0,0-1.16,1c-.21.19-.4.4-.59.61s-.46.5-.67.76-.34.43-.5.65-.47.71-.69,1.08c-.09.16-.19.3-.27.46A13.15,13.15,0,0,0,57.62,14c-.07.19-.12.39-.19.59a12.56,12.56,0,0,0-.34,1.34c0,.2-.08.39-.11.59a13,13,0,0,0-.16,2c0,7.32,5.94,15.13,13.25,15.13S83.34,25.8,83.34,18.48a13.23,13.23,0,0,0-.15-1.91c0-.21-.08-.42-.13-.63a11.5,11.5,0,0,0-.28-1.18c-.08-.25-.15-.5-.24-.75s-.25-.61-.38-.92-.24-.54-.38-.81-.19-.31-.28-.47a13.82,13.82,0,0,0-1.44-2l-.15-.17c-.32-.34-.65-.67-1-1l-.19-.16a13.52,13.52,0,0,0-1.15-.9h0c11.7-1.74,32.87,2.64,44.93-6.87.09-.12.13-.26-.39,0H122C93.08,1.65,79.3,4.22,75.84,5L75,5.22h0a7,7,0,0,0-1.1.36,31.64,31.64,0,0,0-3.65,1.34c-.9.4-3.1,1.75-3.1,1.75C63.29,11.29,60.82,15,61,20.22a8.53,8.53,0,0,0,4.6,7.47"/></clipPath><clipPath id="clip-path-3" transform="translate(0 -0.11)"><path class="cls-1" d="M65.58,27.68A8.53,8.53,0,0,1,61,20.22c-.16-5.23,2.31-8.92,6.16-11.54,0,0,2.19-1.35,3.1-1.75a31.16,31.16,0,0,1,3.63-1.4A10.29,10.29,0,0,1,75,5.22h0L75.84,5C79.3,4.22,93.22,1.65,122.11.67l.14,0c.52-.23.34,0,.25.08-12.06,9.51-33.23,5.14-44.93,6.87h0a13.52,13.52,0,0,1,1.15.9l.19.16c.35.31.68.64,1,1l.15.17a13.82,13.82,0,0,1,1.44,2c.09.16.2.31.28.47s.25.54.38.81.27.61.38.92.17.5.24.75a11.5,11.5,0,0,1,.28,1.18c0,.21.09.42.13.63a13.23,13.23,0,0,1,.15,1.91c0,7.32-5.94,15.13-13.26,15.13S56.83,25.8,56.83,18.48a13,13,0,0,1,.16-2c0-.2.07-.39.11-.59a12.56,12.56,0,0,1,.34-1.34c.06-.19.11-.39.19-.59a13.15,13.15,0,0,1,.71-1.65c.08-.16.19-.3.27-.46.22-.37.44-.74.69-1.08s.33-.44.5-.65.44-.52.67-.76.38-.42.59-.61a13.19,13.19,0,0,1,1.16-1l.1-.08c-11.82-2-34,2.32-45.7-7.25-.14-.11-.55-.5.18-.36h0S43.5,1,58.89,3.92H59l.19,0q1.9.36,3.53.77l.44.12.38.1a18.34,18.34,0,0,1,3.82,1.29,5.57,5.57,0,0,1,.51.25c-.09,0-.17.05-.27.08s-.39.21-.92.25h0a12.58,12.58,0,0,0-1.8.68l0,0a12.45,12.45,0,0,0-1.6.92l-.13.09a11.88,11.88,0,0,0-1.34,1.08l-.24.24a12.73,12.73,0,0,0-1,1.15c-.12.15-.22.31-.33.47-.25.37-.51.74-.73,1.13-.14.24-.25.5-.36.76s-.32.67-.45,1-.22.76-.32,1.15-.16.53-.21.81a12.44,12.44,0,0,0-.19,2.1,12.2,12.2,0,0,0,24.39,0,12,12,0,0,0-.17-1.94c0-.21-.09-.42-.13-.63-.09-.4-.19-.8-.32-1.18s-.17-.5-.27-.75-.27-.62-.42-.92-.26-.54-.41-.8-.19-.28-.29-.41a12,12,0,0,0-1.58-2l-.17-.18a13.11,13.11,0,0,0-1.07-.91l-.2-.15A12.91,12.91,0,0,0,76,7.86a15.57,15.57,0,0,0-2.22.64h0a35.45,35.45,0,0,0-3.65,1.85,17.72,17.72,0,0,0-4.44,3.81,10.2,10.2,0,0,0-2,7.64c.76,4.41,4.09,5.33,7.37,5.09a4.81,4.81,0,0,0,4.19-4.57c0-.24,0-.46,0-.72a3.83,3.83,0,0,0-2.81-4c-2.59-.79-4.87,1.29-4.87,1.29s1.09-4.5,5.58-4.5c6.35,0,6.35,5.78,6.35,5.78h0c-.16,5.09-4.12,8.59-9.28,8.61h0A9.9,9.9,0,0,1,66,27.91Z"/></clipPath></defs><title>底部logo</title><path class="cls-2" d="M47.95,27.43a6.88,6.88,0,0,1,.77-2.23c2.81-5.26,7.4-10.86,12.11-15.73.26-.25,1.48-1.39,2-1.82C56.66,13.93,57.05,21.9,47.95,27.43Z" transform="translate(0 -0.11)"/><path class="cls-2" d="M61,8.57l1.78-.94h.06L60.23,9.77l.08,0c-8.13,5.93-11.56,15.39-23.73,19.75C41.45,21.67,50.47,14.93,61,8.57Z" transform="translate(0 -0.11)"/><path class="cls-2" d="M60.29,8.78C54.7,11.1,49.45,15,45,18.68c-5.18,4.26-11.53,6.4-16.89,7.42,7.81-8.29,21.8-14.93,32-17.76l2.62-.71L60.3,8.75C60.23,8.78,60.24,8.79,60.29,8.78Z" transform="translate(0 -0.11)"/><path class="cls-2" d="M58,7.75c-6,0-12.73.31-19.2,2.54a40.06,40.06,0,0,1-22.38,1.15C33.2,4.85,48.23,5.28,62.75,7.63l-4.88.11Z" transform="translate(0 -0.11)"/><path class="cls-2" d="M60.39,7.84h0l2.34-.21-3.52.82c-5.91,1-12.18,3.63-18.55,7C34.06,18.93,27.23,19.66,21.59,20c6.45-5,14.77-7.9,21.52-9.68C49,8.74,54.66,8.36,60.39,7.84Z" transform="translate(0 -0.11)"/><path class="cls-2" d="M92.18,27.29a7.31,7.31,0,0,0-.77-2.23C88.6,19.8,84,14.2,79.3,9.33c-.26-.24-1.48-1.39-2-1.82C83.47,13.79,83.07,21.77,92.18,27.29Z" transform="translate(0 -0.11)"/><path class="cls-2" d="M79.12,8.44,77.34,7.5h-.06l2.61,2.13-.08,0C87.94,15.53,91.37,25,103.54,29.35,98.67,21.54,89.65,14.8,79.12,8.44Z" transform="translate(0 -0.11)"/><path class="cls-2" d="M79.51,8.57c5.6,2.3,10.86,6.22,15.3,9.85,5.19,4.25,11.55,6.36,16.92,7.37C103.9,17.51,89.89,10.92,79.67,8.13L77,7.43,79.5,8.55C79.58,8.58,79.56,8.58,79.51,8.57Z" transform="translate(0 -0.11)"/><path class="cls-2" d="M82.16,7.61c6,0,12.73.31,19.21,2.54a40.07,40.07,0,0,0,22.37,1.15C106.92,4.72,91.9,5.15,77.37,7.5l4.88.11Z" transform="translate(0 -0.11)"/><path class="cls-2" d="M79.73,7.7h0l-2.34-.2,3.52.82c5.91,1,12.18,3.63,18.55,7,6.63,3.49,13.46,4.22,19.09,4.53-6.45-5-14.77-7.9-21.52-9.68C91.1,8.61,85.46,8.23,79.73,7.7Z" transform="translate(0 -0.11)"/><path class="cls-3" d="M71.25,14.43s-1.11-3.95,1.66-4.22S71.64,12.12,71.25,14.43Z" transform="translate(0 -0.11)"/><path class="cls-3" d="M72,14s1.14-3.35,3.24-2.19S73.36,12.52,72,14Z" transform="translate(0 -0.11)"/><path class="cls-3" d="M71.06,14.59s-2.38-1.27-1.25-2.71S70.14,13.36,71.06,14.59Z" transform="translate(0 -0.11)"/><path class="cls-2" d="M66,27.91a9.9,9.9,0,0,0,4.15.92h0c5.16,0,9.13-3.52,9.28-8.61h0s0-5.78-6.35-5.78c-4.49,0-5.58,4.5-5.58,4.5s3.32-3.88,6.9-.31a5.4,5.4,0,0,1,.78,3c0,.26,0,.48,0,.72A4.81,4.81,0,0,1,71,26.88c-3.28.24-6.61-.68-7.37-5.09a10.2,10.2,0,0,1,2-7.64,17.72,17.72,0,0,1,4.44-3.81A35.45,35.45,0,0,1,73.77,8.5h0A15.57,15.57,0,0,1,76,7.86a12.91,12.91,0,0,1,1.24.8l.2.15a13.11,13.11,0,0,1,1.07.91l.17.18a12,12,0,0,1,1.58,2c.09.14.2.27.29.41s.28.53.41.8.3.61.42.92.19.49.27.75.23.78.32,1.18c0,.21.1.42.13.63a12,12,0,0,1,.17,1.94,12.2,12.2,0,0,1-24.39,0,12.44,12.44,0,0,1,.19-2.1c.05-.28.14-.54.21-.81s.19-.78.32-1.15.29-.68.45-1,.23-.52.36-.76c.22-.4.48-.77.73-1.13.11-.16.21-.31.33-.47a12.73,12.73,0,0,1,1-1.15l.24-.24a11.88,11.88,0,0,1,1.34-1.08l.13-.09a12.45,12.45,0,0,1,1.6-.92l0,0a12.58,12.58,0,0,1,1.8-.68h0c.37-.12.58-.16.92-.25.09,0,.18-.06.27-.08a5.57,5.57,0,0,0-.51-.25A27.1,27.1,0,0,0,63.53,5l-.38-.1-.44-.12q-1.63-.4-3.53-.77l-.19,0h-.1C43.5,1,17.43.17,17.38.17L16.26.11a2.4,2.4,0,0,0,.36.38c11.7,9.57,33.88,5.26,45.7,7.25l-.1.08a13.19,13.19,0,0,0-1.16,1c-.21.19-.4.4-.59.61s-.46.5-.67.76-.34.43-.5.65-.47.71-.69,1.08c-.09.16-.19.3-.27.46A13.15,13.15,0,0,0,57.62,14c-.07.19-.12.39-.19.59a12.56,12.56,0,0,0-.34,1.34c0,.2-.08.39-.11.59a13,13,0,0,0-.16,2c0,7.32,5.94,15.13,13.25,15.13S83.34,25.8,83.34,18.48a13.23,13.23,0,0,0-.15-1.91c0-.21-.08-.42-.13-.63a11.5,11.5,0,0,0-.28-1.18c-.08-.25-.15-.5-.24-.75s-.25-.61-.38-.92-.24-.54-.38-.81-.19-.31-.28-.47a13.82,13.82,0,0,0-1.44-2l-.15-.17c-.32-.34-.65-.67-1-1l-.19-.16a13.52,13.52,0,0,0-1.15-.9h0c11.7-1.74,32.87,2.64,44.93-6.87a1.38,1.38,0,0,0,.27-.3h-.43c-28.89,1-43,3.8-46.5,4.6L75,5.22h0a10,10,0,0,0-1,.28,32.47,32.47,0,0,0-3.71,1.43c-.9.4-3.1,1.75-3.1,1.75C63.29,11.29,60.82,15,61,20.22a8.53,8.53,0,0,0,4.6,7.47" transform="translate(0 -0.11)"/><path class="cls-2" d="M66,27.91a9.9,9.9,0,0,0,4.15.92h0c5.16,0,9.13-3.52,9.28-8.61h0s0-5.78-6.35-5.78c-4.49,0-5.58,4.5-5.58,4.5s3.81-5.06,6.9-.31a5.4,5.4,0,0,1,.78,3c0,.26,0,.48,0,.72A4.81,4.81,0,0,1,71,26.88c-3.28.24-6.61-.68-7.37-5.09a10.2,10.2,0,0,1,2-7.64,17.72,17.72,0,0,1,4.44-3.81A35.45,35.45,0,0,1,73.77,8.5h0A15.57,15.57,0,0,1,76,7.86a12.91,12.91,0,0,1,1.24.8l.2.15a13.11,13.11,0,0,1,1.07.91l.17.18a12,12,0,0,1,1.58,2c.09.14.2.27.29.41s.28.53.41.8.3.61.42.92.19.49.27.75.23.78.32,1.18c0,.21.1.42.13.63a12,12,0,0,1,.17,1.94,12.2,12.2,0,0,1-24.39,0,12.44,12.44,0,0,1,.19-2.1c.05-.28.14-.54.21-.81s.19-.78.32-1.15.29-.68.45-1,.23-.52.36-.76c.22-.4.48-.77.73-1.13.11-.16.21-.31.33-.47a12.73,12.73,0,0,1,1-1.15l.24-.24a11.88,11.88,0,0,1,1.34-1.08l.13-.09a12.45,12.45,0,0,1,1.6-.92l0,0a12.58,12.58,0,0,1,1.8-.68h0a3.45,3.45,0,0,0,.92-.25c.09,0,.18-.06.27-.08a5.57,5.57,0,0,0-.51-.25A18.34,18.34,0,0,0,63.53,5l-.38-.1-.44-.12q-1.63-.4-3.53-.77l-.19,0h-.1C43.5,1,17.43.17,17.38.17l2.55.95c-.74-.13-.46-.09-.32,0C31.32,10.7,50.5,5.75,62.33,7.75l-.1.08a13.19,13.19,0,0,0-1.16,1c-.21.19-.4.4-.59.61s-.46.5-.67.76-.34.43-.5.65-.47.71-.69,1.08c-.09.16-.19.3-.27.46A13.15,13.15,0,0,0,57.62,14c-.07.19-.12.39-.19.59a12.56,12.56,0,0,0-.34,1.34c0,.2-.08.39-.11.59a13,13,0,0,0-.16,2c0,7.32,5.94,15.13,13.25,15.13S83.34,25.8,83.34,18.48a13.23,13.23,0,0,0-.15-1.91c0-.21-.08-.42-.13-.63a11.5,11.5,0,0,0-.28-1.18c-.08-.25-.15-.5-.24-.75s-.25-.61-.38-.92-.24-.54-.38-.81-.19-.31-.28-.47a13.82,13.82,0,0,0-1.44-2l-.15-.17c-.32-.34-.65-.67-1-1l-.19-.16a13.52,13.52,0,0,0-1.15-.9h0c11.7-1.74,32.87,2.64,44.93-6.87.09-.12-.23-.17-.75.06h0C92.86,1.76,79.3,4.22,75.84,5L75,5.22h0c-.7.17-.75.21-1.08.31a31.84,31.84,0,0,0-3.67,1.4c-.9.4-3.1,1.75-3.1,1.75C63.29,11.29,60.82,15,61,20.22a8.53,8.53,0,0,0,4.6,7.47" transform="translate(0 -0.11)"/><g class="cls-4"><polygon class="cls-2" points="61.35 14.37 66.3 14.82 73.86 9.23 76.72 9.48 75.98 7.8 74.41 4.19 66.42 8.11 61.35 14.37"/></g><path class="cls-2" d="M66,27.91a9.9,9.9,0,0,0,4.15.92h0c5.16,0,9.13-3.52,9.28-8.61h0s0-5.78-6.35-5.78c-4.49,0-5.58,4.5-5.58,4.5s4-4,7.55-.69c.48.75.13,2.11.13,3.35,0,.26,0,.48,0,.72A4.81,4.81,0,0,1,71,26.88c-3.28.24-6.61-.68-7.37-5.09a10.2,10.2,0,0,1,2-7.64,17.72,17.72,0,0,1,4.44-3.81A35.45,35.45,0,0,1,73.77,8.5h0A15.57,15.57,0,0,1,76,7.86a12.91,12.91,0,0,1,1.24.8l.2.15a13.11,13.11,0,0,1,1.07.91l.17.18a12,12,0,0,1,1.58,2c.09.14.2.27.29.41s.28.53.41.8.3.61.42.92.19.49.27.75.23.78.32,1.18c0,.21.1.42.13.63a12,12,0,0,1,.17,1.94,12.2,12.2,0,0,1-24.39,0,12.44,12.44,0,0,1,.19-2.1c.05-.28.14-.54.21-.81s.19-.78.32-1.15.29-.68.45-1,.23-.52.36-.76c.22-.4.48-.77.73-1.13.11-.16.21-.31.33-.47a12.73,12.73,0,0,1,1-1.15l.24-.24a11.88,11.88,0,0,1,1.34-1.08l.13-.09a12.45,12.45,0,0,1,1.6-.92l0,0a12.58,12.58,0,0,1,1.8-.68h0a2,2,0,0,0,.92-.25c.09,0,.18-.06.27-.08a5.57,5.57,0,0,0-.51-.25A18.34,18.34,0,0,0,63.53,5l-.38-.1-.44-.12q-1.63-.4-3.53-.77l-.19,0h-.1C43.5,1,20.77,1.48,18.59.83L17.93.65c-.74,0,.62-.18.76-.06C30.4,10.15,50.5,5.75,62.33,7.75l-.1.08a13.19,13.19,0,0,0-1.16,1c-.21.19-.4.4-.59.61s-.46.5-.67.76-.34.43-.5.65-.47.71-.69,1.08c-.09.16-.19.3-.27.46A13.15,13.15,0,0,0,57.62,14c-.07.19-.12.39-.19.59a12.56,12.56,0,0,0-.34,1.34c0,.2-.08.39-.11.59a13,13,0,0,0-.16,2c0,7.32,5.94,15.13,13.25,15.13S83.34,25.8,83.34,18.48a13.23,13.23,0,0,0-.15-1.91c0-.21-.08-.42-.13-.63a11.5,11.5,0,0,0-.28-1.18c-.08-.25-.15-.5-.24-.75s-.25-.61-.38-.92-.24-.54-.38-.81-.19-.31-.28-.47a13.82,13.82,0,0,0-1.44-2l-.15-.17c-.32-.34-.65-.67-1-1l-.19-.16a13.52,13.52,0,0,0-1.15-.9h0c11.7-1.74,32.87,2.64,44.93-6.87.09-.12.13-.26-.39,0H122C93.08,1.65,79.3,4.22,75.84,5L75,5.22h0a7,7,0,0,0-1.1.36,31.64,31.64,0,0,0-3.65,1.34c-.9.4-3.1,1.75-3.1,1.75C63.29,11.29,60.82,15,61,20.22a8.53,8.53,0,0,0,4.6,7.47" transform="translate(0 -0.11)"/><g class="cls-5"><polygon class="cls-2" points="74.62 28.68 74.62 27.8 71.34 26.11 64.87 20.52 65.8 15.75 65.94 14.49 61.53 13.87 60.4 16.98 60.4 21.46 63.1 27.27 68.15 29.24 73.55 29.24 74.62 28.68"/></g><path class="cls-2" d="M65.58,27.68A8.53,8.53,0,0,1,61,20.22c-.16-5.23,2.31-8.92,6.16-11.54,0,0,2.19-1.35,3.1-1.75a31.16,31.16,0,0,1,3.63-1.4A10.29,10.29,0,0,1,75,5.22h0L75.84,5C79.3,4.22,93.22,1.65,122.11.67l.14,0c.52-.23.34,0,.25.08-12.06,9.51-33.23,5.14-44.93,6.87h0a13.52,13.52,0,0,1,1.15.9l.19.16c.35.31.68.64,1,1l.15.17a13.82,13.82,0,0,1,1.44,2c.09.16.2.31.28.47s.25.54.38.81.27.61.38.92.17.5.24.75a11.5,11.5,0,0,1,.28,1.18c0,.21.09.42.13.63a13.23,13.23,0,0,1,.15,1.91c0,7.32-5.94,15.13-13.26,15.13S56.83,25.8,56.83,18.48a13,13,0,0,1,.16-2c0-.2.07-.39.11-.59a12.56,12.56,0,0,1,.34-1.34c.06-.19.11-.39.19-.59a13.15,13.15,0,0,1,.71-1.65c.08-.16.19-.3.27-.46.22-.37.44-.74.69-1.08s.33-.44.5-.65.44-.52.67-.76.38-.42.59-.61a13.19,13.19,0,0,1,1.16-1l.1-.08c-11.82-2-34,2.32-45.7-7.25-.14-.11-.55-.5.18-.36h0S43.5,1,58.89,3.92H59l.19,0q1.9.36,3.53.77l.44.12.38.1a18.34,18.34,0,0,1,3.82,1.29,5.57,5.57,0,0,1,.51.25c-.09,0-.17.05-.27.08s-.39.21-.92.25h0a12.58,12.58,0,0,0-1.8.68l0,0a12.45,12.45,0,0,0-1.6.92l-.13.09a11.88,11.88,0,0,0-1.34,1.08l-.24.24a12.73,12.73,0,0,0-1,1.15c-.12.15-.22.31-.33.47-.25.37-.51.74-.73,1.13-.14.24-.25.5-.36.76s-.32.67-.45,1-.22.76-.32,1.15-.16.53-.21.81a12.44,12.44,0,0,0-.19,2.1,12.2,12.2,0,0,0,24.39,0,12,12,0,0,0-.17-1.94c0-.21-.09-.42-.13-.63-.09-.4-.19-.8-.32-1.18s-.17-.5-.27-.75-.27-.62-.42-.92-.26-.54-.41-.8-.19-.28-.29-.41a12,12,0,0,0-1.58-2l-.17-.18a13.11,13.11,0,0,0-1.07-.91l-.2-.15A12.91,12.91,0,0,0,76,7.86a15.57,15.57,0,0,0-2.22.64h0a35.45,35.45,0,0,0-3.65,1.85,17.72,17.72,0,0,0-4.44,3.81,10.2,10.2,0,0,0-2,7.64c.76,4.41,4.09,5.33,7.37,5.09a4.81,4.81,0,0,0,4.19-4.57c0-.24,0-.46,0-.72a3.83,3.83,0,0,0-2.81-4c-2.59-.79-4.87,1.29-4.87,1.29s1.09-4.5,5.58-4.5c6.35,0,6.35,5.78,6.35,5.78h0c-.16,5.09-4.12,8.59-9.28,8.61h0A9.9,9.9,0,0,1,66,27.91Z" transform="translate(0 -0.11)"/><g class="cls-6"><path class="cls-2" d="M68.66,20.69S67,18.87,67,18.42A25.57,25.57,0,0,1,68.66,15L76.53,13l2.79,1.55a10.46,10.46,0,0,1,1.18,2.28v4.27L79.62,25l-2.25,2-1.94,1.77L68.37,25Z" transform="translate(0 -0.11)"/></g><path class="cls-3" d="M139,49.86c0-.35-.06-.86-.93-1.24A16.07,16.07,0,0,0,135.2,48c-.48-.08-1.74-.31-1.71-1.07,0-.45.31-1,1.56-1a1.22,1.22,0,0,1,.93.31.8.8,0,0,1,.22.61H140a1.61,1.61,0,0,0-.42-1.2c-.62-.67-1.94-1-3.92-1-3.55,0-5.63.85-6.16,2.54a1.85,1.85,0,0,0-.09.49c0,.35.06.87.93,1.25a16,16,0,0,0,2.84.65c.48.08,1.74.31,1.7,1.06s-.57,1-1.62,1a1.37,1.37,0,0,1-1-.32.78.78,0,0,1-.22-.59h-3.79a1.61,1.61,0,0,0,.42,1.17c.63.68,2,1,4.08,1,3.55,0,5.62-.85,6.15-2.53a2.17,2.17,0,0,0,.09-.5" transform="translate(0 -0.11)"/><polygon class="cls-3" points="99.69 42.24 96.38 52.71 99.71 52.71 103.02 42.24 99.69 42.24"/><path class="cls-3" d="M95.78,45.91a11.14,11.14,0,0,1,1.65.12l.43-1.38H96.8a5.67,5.67,0,0,0-2,.35l-.58.21.16-.49H91.07l-2.57,8.1h3.33l1.55-4.88a2.45,2.45,0,0,1,2.4-2" transform="translate(0 -0.11)"/><polygon class="cls-3" points="79.21 44.42 82.62 42.24 77.13 42.24 70.4 52.71 74.57 52.71 75.8 50.54 79.31 50.54 79.15 52.71 83.45 52.71 83.37 44.42 79.75 44.42 79.4 48.81 76.72 48.81 79.21 44.42"/><path class="cls-3" d="M121.63,51.6a1.09,1.09,0,0,1-.81-.29,1,1,0,0,1-.25-.77,2.25,2.25,0,0,1,.14-.65l.25-.83h6.78l.25-.77a4.3,4.3,0,0,0,.23-1.14,1.92,1.92,0,0,0-.51-1.5c-.65-.67-2-1-3.89-1-3.75,0-6,1.27-6.8,3.88l-.22.71a4.45,4.45,0,0,0-.22,1.12,1.93,1.93,0,0,0,.51,1.53c.66.67,2,1,3.88,1,2.89,0,4.92-.8,6.05-2.37h-3.85a1.57,1.57,0,0,1-1.55,1.08m-.13-4.21c.31-1,.88-1.48,1.69-1.48a1.07,1.07,0,0,1,.81.29,1,1,0,0,1,.24.79,2.54,2.54,0,0,1-.12.62l-.16.47h-2.69Z" transform="translate(0 -0.11)"/><path class="cls-3" d="M22.15,47a1.82,1.82,0,0,0-.47-1.42c-.58-.59-1.71-.9-3.36-.9-2.74,0-4.7.8-5.82,2.38h3.41a1.74,1.74,0,0,1,1.75-1.08,1.35,1.35,0,0,1,1,.34.92.92,0,0,1,.24.71,1.62,1.62,0,0,1-.09.42l-.1.34-.11,0a10.74,10.74,0,0,1-3,.58,10.88,10.88,0,0,0-2.83.53A2.91,2.91,0,0,0,11,50.78a2,2,0,0,0-.1.51,1,1,0,0,0,.28.8c.35.36,1.26.8,3.55.8a5.21,5.21,0,0,0,2-.37l.6-.25-.17.54h3.33l1.5-4.74A4.72,4.72,0,0,0,22.15,47m-4.36,3.7c-.2.65-.79,1-1.72,1A1.49,1.49,0,0,1,15,51.3a.75.75,0,0,1-.21-.57,1.23,1.23,0,0,1,.05-.29,1.34,1.34,0,0,1,.85-.84,4.64,4.64,0,0,1,1.13-.24,4.36,4.36,0,0,0,1-.2l.59-.23Z" transform="translate(0 -0.11)"/><path class="cls-3" d="M53.74,52.89c2.9,0,4.93-.8,6.05-2.37H55.95A1.56,1.56,0,0,1,54.4,51.6a1.09,1.09,0,0,1-.81-.29,1,1,0,0,1-.25-.77,2.24,2.24,0,0,1,.13-.65l.26-.83h6.78l.24-.77A4.13,4.13,0,0,0,61,47.16a1.93,1.93,0,0,0-.5-1.5c-.66-.67-2-1-3.9-1-3.75,0-6,1.27-6.79,3.88l-.22.71a4.66,4.66,0,0,0-.22,1.12,1.94,1.94,0,0,0,.51,1.53c.66.67,2,1,3.88,1m.52-5.5c.31-1,.88-1.48,1.69-1.48a1.07,1.07,0,0,1,.81.29A1,1,0,0,1,57,47a2.21,2.21,0,0,1-.12.62l-.15.47H54Z" transform="translate(0 -0.11)"/><path class="cls-3" d="M49.2,46.52a1.65,1.65,0,0,0-.39-1.29,2.82,2.82,0,0,0-2-.59,5.51,5.51,0,0,0-3.43.92l-.25.19-.18-.3c-.32-.54-1.05-.81-2.17-.81a6.89,6.89,0,0,0-2.44.35l-.59.24.16-.51H34.55L32,52.82h3.33L37,47.4c.31-1,.88-1.48,1.69-1.48a1.07,1.07,0,0,1,.8.29,1,1,0,0,1,.25.77,2.72,2.72,0,0,1-.13.64L38,52.82h3.33L43,47.38c.31-1,.88-1.46,1.7-1.46a1.09,1.09,0,0,1,.81.29,1,1,0,0,1,.25.77,2.38,2.38,0,0,1-.13.64L44,52.82h3.33L49,47.76a4.88,4.88,0,0,0,.25-1.23" transform="translate(0 -0.11)"/><path class="cls-3" d="M32.73,46.52a1.66,1.66,0,0,0-.39-1.29,2.83,2.83,0,0,0-2-.59,6.94,6.94,0,0,0-2.44.35l-.59.23.16-.51H24.1l-2.57,8.1h3.33l1.72-5.42c.31-1,.88-1.48,1.69-1.48a1.09,1.09,0,0,1,.81.29,1,1,0,0,1,.25.77,3,3,0,0,1-.13.64l-1.65,5.2h3.33l1.6-5.07a4.88,4.88,0,0,0,.25-1.23" transform="translate(0 -0.11)"/><polygon class="cls-3" points="4.67 50.91 7.41 42.24 3.31 42.24 0 52.71 9.53 52.71 10.11 50.91 4.67 50.91"/><path class="cls-3" d="M116.44,46.52a1.65,1.65,0,0,0-.39-1.29,2.84,2.84,0,0,0-2-.59,7,7,0,0,0-2.44.35l-.59.23.16-.51h-3.33l-2.57,8.1h3.33l1.72-5.42c.31-1,.88-1.48,1.68-1.48a1.1,1.1,0,0,1,.82.29A1,1,0,0,1,113,47a2.86,2.86,0,0,1-.13.64l-1.65,5.2h3.32l1.61-5.07a4.83,4.83,0,0,0,.25-1.23" transform="translate(0 -0.11)"/><polygon class="cls-3" points="107.02 43.64 107.46 42.24 104.13 42.24 103.69 43.64 107.02 43.64"/><polygon class="cls-3" points="103.39 44.61 100.82 52.71 104.15 52.71 106.71 44.61 103.39 44.61"/><polygon class="cls-3" points="66.62 43.61 67.07 42.21 63.74 42.21 63.3 43.61 66.62 43.61"/><polygon class="cls-3" points="62.99 44.58 60.43 52.68 63.76 52.68 66.32 44.58 62.99 44.58"/><polygon class="cls-3" points="90.26 43.64 90.7 42.24 87.37 42.24 86.93 43.64 90.26 43.64"/><polygon class="cls-3" points="86.63 44.61 84.06 52.71 87.39 52.71 89.95 44.61 86.63 44.61"/></svg>