<?xml version="1.0" encoding="UTF-8"?>
<svg width="20px" height="20px" viewBox="0 0 20 20" version="1.1" xmlns="http://www.w3.org/2000/svg" xmlns:xlink="http://www.w3.org/1999/xlink">
    <!-- Generator: Sketch 47.1 (45422) - http://www.bohemiancoding.com/sketch -->
    <title>logout</title>
    <desc>Created with Sketch.</desc>
    <defs>
        <linearGradient x1="0%" y1="0%" x2="100%" y2="100%" id="linearGradient-1">
            <stop stop-color="#42958A" offset="0%"></stop>
            <stop stop-color="#1F2C5C" offset="100%"></stop>
        </linearGradient>
    </defs>
    <g id="Page-1" stroke="none" stroke-width="1" fill="none" fill-rule="evenodd">
        <g id="首页" transform="translate(-1659.000000, -182.000000)" fill="url(#linearGradient-1)">
            <g id="top">
                <g id="个人弹出" transform="translate(1639.000000, 60.000000)">
                    <path d="M37.2679492,133 L27.0068455,133 C26.4507801,133 26,132.556135 26,132 C26,131.447715 26.4499488,131 27.0068455,131 L37.2679492,131 L36.1293636,129.027912 C35.8557678,128.55403 36.0183728,127.947941 36.5,127.669873 C36.9782926,127.393731 37.591513,127.560429 37.8614144,128.027912 L39.8561501,131.482896 C39.8658868,131.498941 39.8751824,131.515286 39.8840205,131.531913 C40.0635696,131.863391 40.0344534,132.254694 39.8357049,132.552517 L37.8614144,135.972088 C37.5878186,136.44597 36.9816272,136.608195 36.5,136.330127 C36.0217074,136.053985 35.8594622,135.439571 36.1293636,134.972088 L37.2679492,133 Z M32,137 C32,136.447715 32.4477153,136 33,136 C33.5522847,136 34,136.447715 34,137 L34,140.009205 C34,141.108691 33.1029399,142 31.9941413,142 L22.0058587,142 C20.8980535,142 20,141.101788 20,140.009205 L20,123.990795 C20,122.891309 20.8970601,122 22.0058587,122 L31.9941413,122 C33.1019465,122 34,122.898212 34,123.990795 L34,127 C34,127.552285 33.5522847,128 33,128 C32.4477153,128 32,127.552285 32,127 L32,125.000872 C32,124.444631 31.5543453,124 31.0046024,124 L22.9953976,124 C22.4556644,124 22,124.448106 22,125.000872 L22,138.999128 C22,139.555369 22.4456547,140 22.9953976,140 L31.0046024,140 C31.5443356,140 32,139.551894 32,138.999128 L32,137 Z" id="logout"></path>
                </g>
            </g>
        </g>
    </g>
</svg>