<?xml version="1.0" encoding="UTF-8"?>
<svg width="30px" height="30px" viewBox="0 0 30 30" version="1.1" xmlns="http://www.w3.org/2000/svg" xmlns:xlink="http://www.w3.org/1999/xlink">
    <!-- Generator: Sketch 47.1 (45422) - http://www.bohemiancoding.com/sketch -->
    <title>Combined Shape</title>
    <desc>Created with Sketch.</desc>
    <defs></defs>
    <g id="Page-1" stroke="none" stroke-width="1" fill="none" fill-rule="evenodd">
        <g id="首页" transform="translate(-1640.000000, -15.000000)" fill="#FFFFFF">
            <g id="top">
                <g id="登陆后" transform="translate(1640.000000, 15.000000)">
                    <path d="M10.5609746,14.0367753 C7.26533082,15.6720753 5,19.0714894 5,23 C5,23.423055 5.02627056,23.8399741 5.07726936,24.2492151 C7.72162935,26.5835453 11.1953993,28 15,28 C18.8046007,28 22.2783707,26.5835453 24.9227306,24.2492151 C24.9737294,23.8399741 25,23.423055 25,23 C25,19.0714894 22.7346692,15.6720753 19.4390254,14.0367753 C20.4088226,12.9709656 21,11.5545212 21,10 C21,6.6862915 18.3137085,4 15,4 C11.6862915,4 9,6.6862915 9,10 C9,11.5545212 9.59117745,12.9709656 10.5609746,14.0367753 Z M15,30 C6.71572875,30 0,23.2842712 0,15 C0,6.71572875 6.71572875,0 15,0 C23.2842712,0 30,6.71572875 30,15 C30,23.2842712 23.2842712,30 15,30 Z" id="Combined-Shape"></path>
                </g>
            </g>
        </g>
    </g>
</svg>