<?xml version="1.0" encoding="UTF-8"?>
<svg width="20px" height="20px" viewBox="0 0 20 20" version="1.1" xmlns="http://www.w3.org/2000/svg" xmlns:xlink="http://www.w3.org/1999/xlink">
    <!-- Generator: Sketch 47.1 (45422) - http://www.bohemiancoding.com/sketch -->
    <title>白色电话</title>
    <desc>Created with Sketch.</desc>
    <defs></defs>
    <g id="Page-1" stroke="none" stroke-width="1" fill="none" fill-rule="evenodd">
        <g id="首页" transform="translate(-1578.000000, -20.000000)" fill="#FFFFFF">
            <g id="top">
                <path d="M1591.99695,39.9999997 C1584.26739,39.9983531 1578.00166,33.7326269 1578,26.0030648 C1578,26.0026761 1578,26.0022874 1578,26.0018986 L1578,21.9981014 C1578,20.8945804 1578.89826,20 1579.99791,20 L1582.00209,20 C1583.1055,20 1584,20.8867064 1584,21.9981014 L1584,26.0018986 C1584,27.1054196 1583.10174,28 1582.00209,28 L1580.16592,28 C1581.00895,33.0250097 1584.97499,36.9910462 1590,37.8340831 L1590,35.9979131 C1590,34.8944962 1590.88671,34 1591.9981,34 L1596.0019,34 C1597.10542,34 1598,34.8982606 1598,35.9979131 L1598,38.0020869 C1598,39.1055038 1597.11329,40 1596.0019,40 L1591.9981,40 C1591.99772,40 1591.99734,39.9999999 1591.99695,39.9999997 Z" id="白色电话"></path>
            </g>
        </g>
    </g>
</svg>