<?xml version="1.0" encoding="UTF-8"?>
<svg width="20px" height="24px" viewBox="0 0 20 24" version="1.1" xmlns="http://www.w3.org/2000/svg" xmlns:xlink="http://www.w3.org/1999/xlink">
    <!-- Generator: Sketch 47.1 (45422) - http://www.bohemiancoding.com/sketch -->
    <title>房间（下拉）</title>
    <desc>Created with Sketch.</desc>
    <defs></defs>
    <g id="Page-1" stroke="none" stroke-width="1" fill="none" fill-rule="evenodd" opacity="0.699999988">
        <g id="首页" transform="translate(-770.000000, -591.000000)" fill="#000000">
            <g id="弹开订酒店">
                <g id="房间信息选择" transform="translate(740.000000, 435.000000)">
                    <g id="room2" transform="translate(30.000000, 154.000000)">
                        <path d="M0,4.00494659 C0,2.89764516 0.898212381,2 1.99079514,2 L18.0092049,2 C19.1086907,2 20,2.89702623 20,4.00494659 L20,23.9950534 C20,25.1023548 19.1017876,26 18.0092049,26 L1.99079514,26 C0.891309342,26 0,25.1029738 0,23.9950534 L0,4.00494659 Z M2,4.991155 L2,23.008845 C2,24.1103261 2.8913969,24.9363288 3.99099071,24.8577864 L14.0090093,24.1422136 C15.1029399,24.0640757 16,23.1086907 16,22.0092049 L16,5.99079514 C16,4.89821238 15.1086031,3.93632879 14.0090093,3.85778638 L3.99099071,3.14221362 C2.89706013,3.06407572 2,3.89147046 2,4.991155 Z M12,13.0093689 C12,12.4519098 12.4438648,12 13,12 C13.5522847,12 14,12.4433532 14,13.0093689 L14,14.9906311 C14,15.5480902 13.5561352,16 13,16 C12.4477153,16 12,15.5566468 12,14.9906311 L12,13.0093689 Z" id="房间（下拉）"></path>
                    </g>
                </g>
            </g>
        </g>
    </g>
</svg>