<?xml version="1.0" encoding="UTF-8"?>
<svg width="50px" height="50px" viewBox="0 0 50 50" version="1.1" xmlns="http://www.w3.org/2000/svg" xmlns:xlink="http://www.w3.org/1999/xlink">
    <!-- Generator: Sketch 47.1 (45422) - http://www.bohemiancoding.com/sketch -->
    <title>订票（选中）</title>
    <desc>Created with Sketch.</desc>
    <defs></defs>
    <g id="Page-1" stroke="none" stroke-width="1" fill="none" fill-rule="evenodd">
        <g id="首页" transform="translate(-60.000000, -135.000000)" fill="#1F2C5C">
            <path d="M101.613341,149.801234 L101.610607,149.7985 L86.2121994,165.197875 L86.2149332,165.200609 L80.6209955,170.794897 L80.9858894,183.377276 C81.0438718,185.376642 80.3639998,185.555737 79.4669277,183.76264 L73.3877607,171.611399 L61.2372828,165.53185 C59.444298,164.634722 59.6233812,163.954807 61.6226221,164.012793 L74.2042111,164.37771 L82.2435209,156.337896 L67.5065374,145.019534 C63.5314466,141.966568 64.3086934,140.158585 69.2569878,140.983696 L93.546775,145.033932 L102.249333,136.330828 C104.023729,134.556321 106.902213,134.55794 108.670554,136.326391 C110.4425,138.098449 110.445277,140.968744 108.666117,142.748016 L101.613341,149.801234 Z M89.9069536,164.069451 L89.9069536,164.069451 L100.318989,153.656762 L103.974282,175.792817 C104.790472,180.735577 103.009457,181.492849 99.9966439,177.486482 L89.9069536,164.069451 Z" id="订票（选中）"></path>
        </g>
    </g>
</svg>