<?xml version="1.0" encoding="UTF-8"?>
<svg width="30px" height="24px" viewBox="0 0 30 24" version="1.1" xmlns="http://www.w3.org/2000/svg" xmlns:xlink="http://www.w3.org/1999/xlink">
    <!-- Generator: Sketch 49.3 (51167) - http://www.bohemiancoding.com/sketch -->
    <title>机票日期</title>
    <desc>Created with Sketch.</desc>
    <defs>
        <linearGradient x1="0%" y1="0%" x2="100%" y2="100%" id="linearGradient-1">
            <stop stop-color="#00908C" offset="0%"></stop>
            <stop stop-color="#1F2C5C" offset="100%"></stop>
        </linearGradient>
    </defs>
    <g id="Page-1" stroke="none" stroke-width="1" fill="none" fill-rule="evenodd">
        <g id="机+酒页面" transform="translate(-375.000000, -240.000000)" fill="url(#linearGradient-1)">
            <g id="搜索条件" transform="translate(355.000000, 90.000000)">
                <g id="机票日期" transform="translate(0.000000, 132.000000)">
                    <path d="M46.9999587,29 L48.0049107,29 C49.1067681,29 50,29.8935426 50,31.0027601 L50,39.9972399 C50,41.1033337 49.1073772,42 48.0049107,42 L33.9950893,42 C32.8932319,42 32,41.1064574 32,39.9972399 L32,31.0027601 C32,29.8966663 32.8926228,29 33.9950893,29 L35.0000418,29 C35.0000139,29.0031196 35,29.0062426 35,29.0093689 L35,30.9906311 C35,31.5566468 35.4519098,32 36.0093689,32 L37.9906311,32 C38.5566468,32 39,31.5480902 39,30.9906311 L39,29.0093689 C39,29.0062422 38.9999862,29.0031192 38.9999587,29 L43.0000418,29 C43.0000139,29.0031196 43,29.0062426 43,29.0093689 L43,30.9906311 C43,31.5566468 43.4519098,32 44.0093689,32 L45.9906311,32 C46.5566468,32 47,31.5480902 47,30.9906311 L47,29.0093689 C47,29.0062422 46.9999862,29.0031192 46.9999587,29 Z M33,34.9981014 L33,39.0018986 C33,40.1132936 33.8927712,41 34.9940603,41 L47.0059397,41 C48.1054862,41 49,40.1054196 49,39.0018986 L49,34.9981014 C49,33.8867064 48.1072288,33 47.0059397,33 L34.9940603,33 C33.8945138,33 33,33.8945804 33,34.9981014 Z M36,28.9989566 C36,28.4472481 36.4438648,28 37,28 C37.5522847,28 38,28.4426603 38,28.9989566 L38,30.0010434 C38,30.5527519 37.5561352,31 37,31 C36.4477153,31 36,30.5573397 36,30.0010434 L36,28.9989566 Z M44,28.9989566 C44,28.4472481 44.4438648,28 45,28 C45.5522847,28 46,28.4426603 46,28.9989566 L46,30.0010434 C46,30.5527519 45.5561352,31 45,31 C44.4477153,31 44,30.5573397 44,30.0010434 L44,28.9989566 Z M36,34 L38,34 L38,36 L36,36 L36,34 Z M40,34 L42,34 L42,36 L40,36 L40,34 Z M44,34 L46,34 L46,36 L44,36 L44,34 Z M36,37 L38,37 L38,39 L36,39 L36,37 Z M40,37 L42,37 L42,39 L40,39 L40,37 Z M44,37 L46,37 L46,39 L44,39 L44,37 Z M25.856659,24.2312897 L24.5386436,19.8432609 C23.9535221,17.8952333 24.8196971,17.4170362 26.4619335,18.7658424 L31.4584464,22.8695923 L35.8246581,21.8082419 C36.746923,21.5840552 37.6948703,22.0804857 37.9408374,22.9132578 C38.1873061,23.7477278 37.6414484,24.6054565 36.7172,24.8301252 L23.8320528,27.9622812 C23.2189583,28.1113139 22.5128728,27.8054635 22.2546201,27.278438 L20.112295,22.906518 C19.8541975,22.3798092 20.0556614,22.230811 20.566382,22.5764995 L23.7630497,24.7402098 L25.856659,24.2312897 Z M21,32 L29,32 C29.5522847,32 30,32.4477153 30,33 C30,33.5522847 29.5522847,34 29,34 L21,34 C20.4477153,34 20,33.5522847 20,33 C20,32.4477153 20.4477153,32 21,32 Z M25,36 L29,36 C29.5522847,36 30,36.4477153 30,37 C30,37.5522847 29.5522847,38 29,38 L25,38 C24.4477153,38 24,37.5522847 24,37 C24,36.4477153 24.4477153,36 25,36 Z"></path>
                </g>
            </g>
        </g>
    </g>
</svg>