<?xml version="1.0" encoding="UTF-8"?>
<svg width="50px" height="50px" viewBox="0 0 50 50" version="1.1" xmlns="http://www.w3.org/2000/svg" xmlns:xlink="http://www.w3.org/1999/xlink">
    <!-- Generator: Sketch 49.3 (51167) - http://www.bohemiancoding.com/sketch -->
    <title>机+酒（没选中）</title>
    <desc>Created with Sketch.</desc>
    <defs></defs>
    <g id="Page-1" stroke="none" stroke-width="1" fill="none" fill-rule="evenodd" opacity="0.200000003">
        <g id="首页" transform="translate(-423.000000, -334.000000)" fill="#1F2C5C">
            <path d="M433,382 L433,364 L427,364 C425.895431,364 425,363.104569 425,362 L425,356 C425,354.895431 425.895431,354 427,354 L441,354 C442.104569,354 443,354.895431 443,356 L443,362 C443,363.104569 442.104569,364 441,364 L435,364 L435,382 L437,382 L437,384 L431,384 L431,382 L433,382 Z M453,384 L442,384 C441.447715,384 441,383.552285 441,383 C441,382.447715 441.447715,382 442,382 L445,382 L445,352 C445,350.895431 445.895431,350 447,350 L467,350 C468.104569,350 469,350.895431 469,352 L469,382 L472,382 C472.552285,382 473,382.447715 473,383 C473,383.552285 472.552285,384 472,384 L461,384 L461,376 L453,376 L453,384 Z M432.761098,345.216321 L430.564406,337.31787 C429.589203,333.81142 431.032828,332.950665 433.769889,335.378516 L442.097411,342.765266 L449.37443,340.854835 C450.911538,340.451299 452.49145,341.344874 452.901396,342.843864 C453.312177,344.34591 452.402414,345.889822 450.862,346.294225 L429.386755,351.932106 C428.36493,352.200365 427.188121,351.649834 426.7577,350.701188 L423.187158,342.831732 C422.756996,341.883657 423.092769,341.61546 423.94397,342.237699 L429.271749,346.132378 L432.761098,345.216321 Z M449,354 L449,360 L456,360 L456,354 L449,354 Z M458,354 L458,360 L465,360 L465,354 L458,354 Z M449,361 L449,367 L456,367 L456,361 L449,361 Z M458,361 L458,367 L465,367 L465,361 L458,361 Z M449,368 L449,374 L456,374 L456,368 L449,368 Z M458,368 L458,374 L465,374 L465,368 L458,368 Z M427.5,361 C427.223858,361 427,361.223858 427,361.5 C427,361.776142 427.223858,362 427.5,362 L440.5,362 C440.776142,362 441,361.776142 441,361.5 C441,361.223858 440.776142,361 440.5,361 L427.5,361 Z M429.646552,356.059322 L428.922414,356.059322 L428.922414,357.216102 L427.728448,357.216102 L427.728448,356.059322 L427,356.059322 L427,358.940678 L427.728448,358.940678 L427.728448,357.860169 L428.922414,357.860169 L428.922414,358.940678 L429.646552,358.940678 L429.646552,356.059322 Z M431.646552,356 C430.762931,356 430.094828,356.661017 430.094828,357.5 C430.094828,358.338983 430.762931,359 431.646552,359 C432.530172,359 433.198276,358.338983 433.198276,357.5 C433.198276,356.661017 432.530172,356 431.646552,356 Z M431.646552,358.334746 C431.172414,358.334746 430.831897,357.95339 430.831897,357.5 C430.831897,357.04661 431.172414,356.665254 431.646552,356.665254 C432.12069,356.665254 432.461207,357.04661 432.461207,357.5 C432.461207,357.95339 432.12069,358.334746 431.646552,358.334746 Z M435.866379,356.699153 L435.866379,356.059322 L433.271552,356.059322 L433.271552,356.699153 L434.206897,356.699153 L434.206897,358.940678 L434.931034,358.940678 L434.931034,356.699153 L435.866379,356.699153 Z M436.922414,356.682203 L438.409483,356.682203 L438.409483,356.059322 L436.193966,356.059322 L436.193966,358.940678 L438.409483,358.940678 L438.409483,358.317797 L436.922414,358.317797 L436.922414,357.817797 L438.224138,357.817797 L438.224138,357.207627 L436.922414,357.207627 L436.922414,356.682203 Z M441,358.309322 L439.551724,358.309322 L439.551724,356.059322 L438.823276,356.059322 L438.823276,358.940678 L441,358.940678 L441,358.309322 Z" id="机+酒（没选中）"></path>
        </g>
    </g>
</svg>